<svg xmlns="http://www.w3.org/2000/svg" xmlns:xlink="http://www.w3.org/1999/xlink" width="30" height="30" viewBox="0 0 16 16"><linearGradient id="a"><stop offset="0" stop-color="#ffe98c"/><stop offset="1" stop-color="#c39015"/></linearGradient><linearGradient id="b" x1="57.47%" x2="74.363%" y1="9.314%" y2="50%" xlink:href="#a"/><linearGradient id="c" x1="8.478%" x2="54.989%" y1="28.274%" y2="62.055%" xlink:href="#a"/><linearGradient id="d" x1="72.509%" x2="60.218%" y1="79.025%" y2="33.146%"><stop offset="0" stop-color="#c39015"/><stop offset="1" stop-color="#ffe98c"/></linearGradient><linearGradient id="e" x1="73.764%" x2="50%" y1="100%" y2="26.114%"><stop offset="0" stop-color="#fdfbbf"/><stop offset="1" stop-color="#c39015"/></linearGradient><linearGradient id="f" x1="50%" x2="65.178%" y1="23.146%" y2="100%" xlink:href="#a"/><linearGradient id="g" x1="19.465%" x2="84.94%" y1="50%" y2="78.08%"><stop offset="0" stop-color="#ffe98c"/><stop offset="1" stop-color="#d0a42f"/></linearGradient><g fill="none"><circle cx="8" cy="8" r="8" fill="#c39015"/><path fill="url(#b)" d="M.045 7.154a7.96 7.96 0 0 0 1.385 5.408l12.274-10.17a8.046 8.046 0 0 0-1.207-1.009L.045 7.153z"/><path fill="url(#c)" d="M8 0A8 8 0 0 0 .045 7.154l12.452-5.77A7.963 7.963 0 0 0 8 0z"/><path fill="url(#d)" d="M7.32 15.97a8 8 0 0 0 8.603-9.067L7.32 15.969z"/><path fill="url(#e)" d="M1.43 12.562c.09.13.183.255.28.379l13.721-7.903a8.01 8.01 0 0 0-1.727-2.645z"/><path fill="url(#f)" d="M2.044 13.335a7.983 7.983 0 0 0 4.508 2.53L9.5 10.833z"/><path fill="url(#g)" d="M15.431 5.038L1.71 12.941c.305.387.334.394.334.394L9.5 10.834l-2.948 5.032s.417.074.768.104l8.603-9.067a7.95 7.95 0 0 0-.492-1.865z"/></g></svg>