<?xml version="1.0" ?><svg enable-background="new 0 0 128 128" id="Слой_1" version="1.1" viewBox="0 0 128 128" xml:space="preserve" xmlns="http://www.w3.org/2000/svg" xmlns:xlink="http://www.w3.org/1999/xlink"><polygon fill="#CFD8DC" id="paper_4_" points="102,113 22,109.5 22,29 102,17 "/><polygon fill="#B0BEC5" id="paper_small_corner" points="14,41 16,33 30.1,33.1 "/><polygon fill="#ECEFF1" id="roll_top" points="14,41 102,41 102,17 22,26 "/><polygon fill="#B0BEC5" id="roll_bottom" points="102,113 22,113 17.5,104.5 "/><g id="pen_1_"><path d="M79.8,94.4L77,93.1c0,0-10.3,17.9-15,23.2c-0.2,0.3-0.4,0.5-0.6,0.8c-0.1,0.2,0.3,0.9,0.2,1.2c-0.6,1.3-1.2,1.9-2.1,1.5   c-0.9-0.4-0.9-1.1-0.3-2.4c0.1-0.2,1-0.5,1.1-0.8c0.1-0.3,0.1-0.6,0.1-1c0.9-7,7.8-26.5,7.8-26.5l-3-1.3l1.6-3.6l14.6,6.6   L79.8,94.4z M92.3,69.3l-16.4-7.4L66,83.7l16.4,7.4L92.3,69.3z"/><path d="M61.6,117.2c3.1-2.9,14.3-9.4,16.6-14.3c-1.3-1.9-0.8-6.6,0-8.4l-5.9-2.7l-1.5,0.4l-1.9,4.3l0.8,1.2   c1.5,0.7,2.2,2.5,1.5,4c-0.5,1.2-1.8,1.9-3,1.7l-6.2,12.6l-2.1,4.6c0.9,0.2,1.8-0.3,2.2-1.1C62.3,118.6,62.1,117.7,61.6,117.2z" fill="#FFD600"/><path d="M66.3,89.1c-0.8,1.8-4.1,5.3-6.3,5.5c-2.2,4.9,0.4,17.7,0.2,21.9c-0.8,0-1.5,0.4-1.8,1.2   c-0.4,0.8-0.1,1.8,0.6,2.4l2.1-4.6l5.3-12.9c-0.9-0.9-1.2-2.2-0.7-3.4c0.7-1.5,2.5-2.2,4-1.5l2.6-5.8L66.3,89.1z" fill="#FFD600"/><path d="M80.3,95.7l-16.4-7.4l0.8-1.8l16.4,7.4L80.3,95.7z M82.8,90.2l-16.4-7.4l-1.2,2.7L81.5,93L82.8,90.2z" fill="#263238"/><path d="M91.5,73.3l-18.2-8.2l1.2-2.6c0.3-0.6,0.3-1.3,0.2-1.9c-0.1-0.5,0-0.8,0.2-1.4l19.7-43.6   c0.2-0.5,0.8-0.7,1.3-0.5l18.2,8.2c0.5,0.2,0.7,0.8,0.5,1.3L94.9,68.3c-0.2,0.5-0.5,0.8-0.9,1c-0.6,0.3-1.1,0.8-1.3,1.4L91.5,73.3z   " fill="#263238"/><g><rect fill="#212121" height="20" transform="matrix(0.4118 -0.9113 0.9113 0.4118 -30.1428 118.1314)" width="3" x="74.9" y="72.4"/><rect fill="#212121" height="20" transform="matrix(0.4118 -0.9113 0.9113 0.4118 -25.8523 117.4885)" width="3" x="76.6" y="68.8"/><rect fill="#212121" height="20" transform="matrix(0.4118 -0.9113 0.9113 0.4118 -21.563 116.8425)" width="3" x="78.2" y="65.1"/><rect fill="#212121" height="20" transform="matrix(0.4118 -0.9113 0.9113 0.4118 -17.2725 116.1997)" width="3" x="79.9" y="61.5"/><rect fill="#212121" height="20" transform="matrix(0.4118 -0.9113 0.9113 0.4118 -34.4344 118.771)" width="3" x="73.3" y="76.1"/></g><path d="M113.7,24.2L95.5,16l2.9-6.4c0.2-0.5,0.8-0.7,1.3-0.5l16.4,7.4c0.5,0.2,0.7,0.8,0.5,1.3L113.7,24.2z" fill="#263238"/></g></svg>