<svg width="26" height="26" viewBox="0 0 26 26" fill="none" xmlns="http://www.w3.org/2000/svg">
<path d="M4 13.7778C4 12.6732 4.89543 11.7778 6 11.7778H9.33333C10.4379 11.7778 11.3333 12.6732 11.3333 13.7778V22C11.3333 23.1046 10.4379 24 9.33333 24H6C4.89543 24 4 23.1046 4 22V13.7778Z" fill="#112490"/>
<path d="M14.7778 4C14.7778 2.89543 15.6732 2 16.7778 2H20.1111C21.2157 2 22.1111 2.89543 22.1111 4V22C22.1111 23.1046 21.2157 24 20.1111 24H16.7778C15.6732 24 14.7778 23.1046 14.7778 22V4Z" fill="#112490"/>
</svg>
