<svg width="26" height="26" viewBox="0 0 26 26" fill="none" xmlns="http://www.w3.org/2000/svg">
<path d="M23.9663 15.63L21.7604 13.905C21.7883 13.639 21.8123 13.328 21.8123 12.999C21.8123 12.67 21.7893 12.359 21.7604 12.093L23.9684 10.367C24.3784 10.043 24.4904 9.46802 24.2294 8.98905L21.9353 5.02C21.6903 4.57202 21.1533 4.342 20.6084 4.543L18.0053 5.58798C17.5064 5.22798 16.9833 4.924 16.4423 4.681L16.0463 1.92002C15.9813 1.396 15.5253 1 14.9864 1H10.3864C9.84736 1 9.39239 1.396 9.32836 1.912L8.93138 4.68302C8.40736 4.91903 7.89239 5.21903 7.37138 5.59L4.76138 4.54202C4.27233 4.35302 3.68733 4.56498 3.44433 5.011L1.14736 8.98502C0.876378 9.44303 0.988362 10.038 1.40738 10.37L3.61336 12.095C3.57835 12.432 3.56138 12.725 3.56138 13C3.56138 13.2751 3.57839 13.568 3.61336 13.906L1.40536 15.632C0.995347 15.957 0.884347 16.532 1.14535 17.01L3.43936 20.979C3.68438 21.426 4.21636 21.658 4.76635 21.456L7.36936 20.411C7.86736 20.77 8.39035 21.074 8.93138 21.318L9.32738 24.078C9.39235 24.604 9.84736 25 10.3874 25H14.9873C15.5264 25 15.9824 24.604 16.0463 24.088L16.4433 21.318C16.9673 21.081 17.4813 20.782 18.0033 20.41L20.6133 21.458C20.7393 21.507 20.8703 21.532 21.0053 21.532C21.3933 21.532 21.7503 21.32 21.9303 20.99L24.2343 17C24.4904 16.532 24.3783 15.957 23.9663 15.63ZM12.6863 17C10.4804 17 8.68636 15.206 8.68636 13C8.68636 10.794 10.4804 9.00002 12.6863 9.00002C14.8923 9.00002 16.6863 10.794 16.6863 13C16.6863 15.206 14.8923 17 12.6863 17Z" fill="#112490"/>
</svg>
