<svg width="26" height="26" viewBox="0 0 26 26" fill="none" xmlns="http://www.w3.org/2000/svg">
<path d="M4 2C3.44772 2 3 2.44772 3 3V11H2C0.895431 11 0 11.8954 0 13V16C0 17.1046 0.895431 18 2 18H3V23C3 23.5523 3.44772 24 4 24H8C8.55228 24 9 23.5523 9 23V18H10C11.1046 18 12 17.1046 12 16V13C12 11.8954 11.1046 11 10 11H9V3C9 2.44772 8.55228 2 8 2H4Z" fill="#112490"/>
<path d="M14 7C14 8.10457 14.8954 9 16 9H17V23C17 23.5523 17.4477 24 18 24H22C22.5523 24 23 23.5523 23 23V9H24C25.1046 9 26 8.10457 26 7V4C26 2.89543 25.1046 2 24 2H16C14.8954 2 14 2.89543 14 4V7Z" fill="#112490"/>
</svg>
