<svg width="24" height="25" viewBox="0 0 24 25" fill="none" xmlns="http://www.w3.org/2000/svg">
<path d="M13.12 2.55997L7.58 8.09997C7.21 8.46997 7 8.97997 7 9.50997V19.5C7 20.6 7.9 21.5 9 21.5H18C18.8 21.5 19.52 21.02 19.84 20.29L23.1 12.68C23.94 10.7 22.49 8.49997 20.34 8.49997H14.69L15.64 3.91997C15.74 3.41997 15.59 2.90997 15.23 2.54997C14.64 1.96997 13.7 1.96997 13.12 2.55997ZM3 21.5C4.1 21.5 5 20.6 5 19.5V11.5C5 10.4 4.1 9.49997 3 9.49997C1.9 9.49997 1 10.4 1 11.5V19.5C1 20.6 1.9 21.5 3 21.5Z" fill="white"/>
</svg>
