<svg width="24" height="25" viewBox="0 0 24 25" fill="none" xmlns="http://www.w3.org/2000/svg">
<path d="M13.12 22.44L7.58 16.9C7.21 16.53 7 16.02 7 15.49V5.50003C7 4.40003 7.9 3.50003 9 3.50003H18C18.8 3.50003 19.52 3.98003 19.84 4.71003L23.1 12.32C23.94 14.3 22.49 16.5 20.34 16.5H14.69L15.64 21.08C15.74 21.58 15.59 22.09 15.23 22.45C14.64 23.03 13.7 23.03 13.12 22.44ZM3 3.50003C4.1 3.50003 5 4.40003 5 5.50003V13.5C5 14.6 4.1 15.5 3 15.5C1.9 15.5 1 14.6 1 13.5V5.50003C1 4.40003 1.9 3.50003 3 3.50003Z" fill="black"/>
</svg>
