<svg width="20" height="20" xmlns="http://www.w3.org/2000/svg" xmlns:xlink="http://www.w3.org/1999/xlink" x="0px" y="0px" viewBox="0 0 1000 1000" enable-background="new 0 0 1000 1000" xml:space="preserve"><path d="M402.3,802.8c0,4.5-1.9,8.9-5.6,13.4L219.2,993.7c-3.7,3.3-8,5-12.8,5c-4.5,0-8.7-1.7-12.8-5L15.4,815.6c-5.6-5.9-6.9-12.4-3.9-19.5c3-7.4,8.5-11.1,16.7-11.1h106.9V19.1c0-5.2,1.7-9.5,5-12.8c3.3-3.3,7.6-5,12.8-5h106.9c5.2,0,9.5,1.7,12.8,5c3.3,3.3,5,7.6,5,12.8V785h106.9c5.2,0,9.5,1.7,12.8,5C400.6,793.3,402.3,797.6,402.3,802.8L402.3,802.8z M990,874v106.9c0,5.2-1.7,9.5-5,12.8s-7.6,5-12.8,5H509.1c-5.2,0-9.5-1.7-12.8-5c-3.3-3.3-5-7.6-5-12.8V874c0-5.2,1.7-9.5,5-12.8c3.3-3.3,7.6-5,12.8-5h463.1c5.2,0,9.5,1.7,12.8,5C988.3,864.6,990,868.8,990,874L990,874z M883.1,589.1v106.9c0,5.2-1.7,9.5-5,12.8c-3.3,3.3-7.6,5-12.8,5H509.1c-5.2,0-9.5-1.7-12.8-5c-3.3-3.3-5-7.6-5-12.8V589.1c0-5.2,1.7-9.5,5-12.8c3.3-3.3,7.6-5,12.8-5h356.2c5.2,0,9.5,1.7,12.8,5C881.5,579.6,883.1,583.9,883.1,589.1z M776.3,304.1v106.9c0,5.2-1.7,9.5-5,12.8c-3.3,3.3-7.6,5-12.8,5H509.1c-5.2,0-9.5-1.7-12.8-5c-3.3-3.3-5-7.6-5-12.8V304.1c0-5.2,1.7-9.5,5-12.8c3.3-3.3,7.6-5,12.8-5h249.3c5.2,0,9.5,1.7,12.8,5C774.6,294.6,776.3,298.9,776.3,304.1z M669.4,19.1V126c0,5.2-1.7,9.5-5,12.8c-3.3,3.3-7.6,5-12.8,5H509.1c-5.2,0-9.5-1.7-12.8-5c-3.3-3.3-5-7.6-5-12.8V19.1c0-5.2,1.7-9.5,5-12.8c3.3-3.3,7.6-5,12.8-5h142.5c5.2,0,9.5,1.7,12.8,5S669.4,13.9,669.4,19.1z"/></svg>