<svg width="14" height="14" viewBox="0 0 14 14" fill="none" xmlns="http://www.w3.org/2000/svg">
<g clip-path="url(#clip0)">
<path d="M13.641 11.3583L2.6692 0.386441C2.19069 -0.0920705 1.4149 -0.0920705 0.937135 0.386441L0.358884 0.963795C-0.119628 1.44246 -0.119628 2.21824 0.358884 2.69601L11.3307 13.6678C11.8094 14.1463 12.5852 14.1463 13.0629 13.6678L13.6403 13.0905C14.1197 12.6127 14.1197 11.8368 13.641 11.3583V11.3583Z" fill="#F44336"/>
<path d="M11.3307 0.386329L0.358883 11.3582C-0.119628 11.8367 -0.119628 12.6126 0.358883 13.0904L0.936236 13.6677C1.4149 14.1462 2.19068 14.1462 2.66845 13.6677L13.641 2.69664C14.1197 2.21813 14.1197 1.44234 13.641 0.96458L13.0636 0.387226C12.5851 -0.0921826 11.8093 -0.0921826 11.3307 0.386329V0.386329Z" fill="#F44336"/>
</g>
<defs>
<clipPath id="clip0">
<rect width="14" height="14" fill="white"/>
</clipPath>
</defs>
</svg>
