<svg width="68" height="22" viewBox="0 0 68 22" fill="none" xmlns="http://www.w3.org/2000/svg">
<path d="M37.1607 2.93359H39.6768L36.1939 7.06867L40.336 11.7342H37.5233L33.7877 7.46919V11.7342H31.5354V2.93359H33.7877V6.9929L37.1607 2.93359Z" fill="#9795BC"/>
<path d="M46.3339 11.7342H44.0029L47.9323 2.93359H50.3076L54.2703 11.7342H51.9504L49.1311 5.0959L48.2431 7.20414L46.3339 11.7342Z" fill="#9795BC"/>
<path d="M65.3497 2.93359H67.4711V11.7342H65.5598L60.7814 6.26764V11.7342H58.6705V2.93359H60.5504L65.3497 8.42178V2.93359Z" fill="#9795BC"/>
<path d="M34.959 19.4285L34.3126 17.7202H31.883L31.2478 19.4285H30.802L32.9307 13.9336H33.3096L35.4048 19.4285H34.959ZM33.109 14.4341H33.0867C33.0421 14.5973 32.9975 14.7388 32.9641 14.8367L32.0279 17.372H34.19L33.2427 14.8476L33.1201 14.4341H33.109ZM40.5425 19.1347C40.5425 19.8638 40.3754 20.3969 40.0522 20.7451C39.729 21.0933 39.2052 21.2674 38.5031 21.2674C38.113 21.2674 37.7118 21.1695 37.2994 20.9736V20.5928C37.7341 20.8213 38.1353 20.941 38.5142 20.941C39.6175 20.941 40.1636 20.3752 40.1636 19.2327V18.7212H40.1525C39.8293 19.2544 39.3501 19.5156 38.7037 19.5156C38.3693 19.5156 38.0795 19.4394 37.8232 19.2762C37.5669 19.113 37.3663 18.8845 37.2325 18.5907C37.0988 18.2969 37.0208 17.9378 37.0208 17.5461C37.0208 17.1326 37.0988 16.7627 37.2548 16.4362C37.4109 16.1098 37.6226 15.8595 37.9124 15.6854C38.191 15.5113 38.5142 15.4134 38.8708 15.4134C39.4615 15.4134 39.885 15.6528 40.1525 16.1207H40.1636V15.5005H40.5425V19.1347ZM40.1636 17.0129C40.1636 16.7844 40.1079 16.5668 39.9965 16.3709C39.885 16.1751 39.729 16.0228 39.5395 15.9031C39.3389 15.7943 39.116 15.7398 38.882 15.7398C38.4473 15.7398 38.0907 15.9031 37.8232 16.2186C37.5557 16.545 37.422 16.9694 37.422 17.5026C37.422 18.014 37.5446 18.4275 37.7786 18.7321C38.0127 19.0368 38.347 19.1891 38.7705 19.1891C39.1829 19.1891 39.5284 19.0586 39.7847 18.7865C40.041 18.5145 40.1748 18.1881 40.1748 17.7746V17.0129H40.1636ZM42.9721 17.4917C42.9721 18.0249 43.0947 18.4383 43.351 18.7321C43.6074 19.0259 43.9529 19.1783 44.3986 19.1783C44.8556 19.1783 45.2902 19.015 45.7137 18.6995V19.0803C45.3014 19.3632 44.8333 19.5047 44.3206 19.5047C43.7857 19.5047 43.3622 19.3197 43.0501 18.9389C42.7381 18.5689 42.582 18.0575 42.582 17.4264C42.582 17.0564 42.6601 16.7083 42.8161 16.3927C42.9721 16.0772 43.1839 15.8269 43.4625 15.6528C43.7411 15.4787 44.0532 15.3808 44.3986 15.3808C44.889 15.3808 45.2679 15.544 45.5466 15.8813C45.8252 16.2186 45.9589 16.6865 45.9589 17.2958V17.459H42.9944L42.9721 17.4917ZM45.5466 17.1544C45.5354 16.7083 45.424 16.3601 45.2122 16.1098C45.0005 15.8595 44.7218 15.7398 44.3652 15.7398C43.9863 15.7398 43.6742 15.8595 43.429 16.1098C43.1839 16.3601 43.039 16.7083 42.9833 17.1544H45.5466ZM50.6954 19.4176V17.1435C50.6954 16.2077 50.35 15.7398 49.659 15.7398C49.2801 15.7398 48.968 15.8704 48.7117 16.1424C48.4665 16.4145 48.3328 16.7518 48.3328 17.1653V19.4176H47.9538V15.5005H48.3328V16.2077H48.3439C48.6337 15.6746 49.0906 15.4025 49.7147 15.4025C50.1494 15.4025 50.4837 15.544 50.7066 15.8269C50.9406 16.1098 51.0521 16.5124 51.0521 17.0347V19.4176H50.6843H50.6954ZM55.9224 19.2435C55.6326 19.4176 55.276 19.5156 54.8636 19.5156C54.507 19.5156 54.1838 19.4285 53.9051 19.2653C53.6265 19.1021 53.4148 18.8627 53.2588 18.5689C53.1027 18.2642 53.0359 17.9269 53.0359 17.5352C53.0359 17.1326 53.125 16.7627 53.2922 16.4362C53.4594 16.1098 53.7045 15.8595 54.0055 15.6854C54.3175 15.5113 54.663 15.4134 55.0531 15.4134C55.3651 15.4134 55.666 15.4787 55.9558 15.5984V16.001C55.666 15.8269 55.3428 15.7507 55.0085 15.7507C54.7076 15.7507 54.429 15.8269 54.1949 15.9683C53.9497 16.1207 53.7603 16.3274 53.6377 16.5994C53.5039 16.8715 53.4371 17.1761 53.4371 17.5135C53.4371 18.014 53.5708 18.4275 53.8383 18.7321C54.1058 19.0368 54.4624 19.1891 54.897 19.1891C55.2982 19.1891 55.6437 19.0803 55.9446 18.8736V19.2544L55.9224 19.2435ZM57.739 21.2565C57.6164 21.2565 57.5161 21.2348 57.4269 21.2021V20.843C57.5272 20.8757 57.6387 20.8975 57.7612 20.8975C58.0844 20.8975 58.3296 20.6798 58.5191 20.2555L58.8869 19.3959L57.3712 15.5113H57.7835L58.9872 18.6995L59.0763 18.9824H59.0875L59.1878 18.7104L60.4694 15.5113H60.8706L58.9203 20.2228C58.7643 20.5928 58.5971 20.8648 58.4188 21.028C58.2405 21.1912 58.0064 21.2674 57.739 21.2674V21.2565Z" fill="#9795BC"/>
<path d="M17.7379 22H16.8514H6.93936H6.35735H0L11.9536 0L23.9699 22H17.7379ZM9.3838 16.8604H14.407L11.8999 11.5686L9.3838 16.8604Z" fill="#9795BC"/>
</svg>
