<svg width="110" height="111" viewBox="0 0 110 111" fill="none" xmlns="http://www.w3.org/2000/svg">
<g clip-path="url(#clip0)">
<path d="M54.7913 56.0972C51.9085 66.5075 26.6045 73.2637 17.4924 68.3803C11.3269 65.0753 5 56.4595 5 51.3689C5 49.5268 7.26595 45.3329 8.53201 44.8317C8.9068 44.6835 9.0461 43.3475 8.95483 40.7752C8.86404 38.2048 9.02164 36.6938 9.43243 36.1936C10.9526 34.3411 13.3887 32.7235 16.6275 31.4158C19.8736 30.1056 20.6217 30 26.6603 30C38.5229 30 57.1799 47.4716 54.7913 56.0972Z" fill="url(#paint0_linear)"/>
<path d="M56.2087 56.0972C59.0915 66.5075 84.3955 73.2637 93.5076 68.3803C99.6731 65.0753 106 56.4595 106 51.3689C106 49.5268 103.734 45.3329 102.468 44.8317C102.093 44.6835 101.954 43.3475 102.045 40.7752C102.136 38.2048 101.978 36.6938 101.568 36.1936C100.047 34.3411 97.6113 32.7235 94.3725 31.4158C91.1264 30.1056 90.3783 30 84.3397 30C72.4771 30 53.8201 47.4716 56.2087 56.0972Z" fill="url(#paint1_linear)"/>
<path d="M56.7121 57.0508C45.792 57.0496 32.0085 33.6009 34.1407 23.1305C35.5841 16.0458 42.1321 7.32854 47.0692 5.91858C48.8557 5.40836 53.5707 6.51415 54.4185 7.6422C54.6694 7.97616 56.0049 7.74552 58.4736 6.94173C60.9404 6.13896 62.4509 5.87816 63.0534 6.15068C65.2845 7.15873 67.5494 9.14829 69.7432 12.027C71.9415 14.9122 72.2577 15.6316 73.9834 21.674C77.3733 33.544 65.7601 57.0519 56.7121 57.0508Z" fill="url(#paint2_linear)"/>
<path d="M55.766 55.5411C65.312 50.2378 88.7502 64.039 91.9724 74.2268C94.1521 81.1207 92.6629 91.9211 89.0323 95.5517C87.7185 96.8656 83.06 98.1892 81.771 97.6151C81.3895 97.445 80.3342 98.2953 78.5667 100.197C76.8004 102.097 75.6068 103.059 74.9478 103.113C72.5079 103.316 69.5617 102.677 66.2458 101.226C62.9227 99.7721 62.2969 99.2969 57.8535 94.8535C49.1245 86.1245 47.8567 59.9353 55.766 55.5411Z" fill="url(#paint3_linear)"/>
<path d="M54.5539 55.5411C45.008 50.2378 21.5698 64.039 18.3475 74.2268C16.1679 81.1207 17.657 91.9211 21.2876 95.5517C22.6014 96.8656 27.2599 98.1892 28.549 97.6151C28.9305 97.445 29.9858 98.2953 31.7532 100.197C33.5196 102.097 34.7132 103.059 35.3722 103.113C37.812 103.316 40.7582 102.677 44.0742 101.226C47.3972 99.7721 48.023 99.2969 52.4665 94.8535C61.1954 86.1245 62.4633 59.9353 54.5539 55.5411Z" fill="url(#paint4_linear)"/>
</g>
<defs>
<linearGradient id="paint0_linear" x1="-2.5" y1="37.5" x2="38.5" y2="57" gradientUnits="userSpaceOnUse">
<stop stop-color="#EF6BEA"/>
<stop offset="1" stop-color="#163FCF" stop-opacity="0.6"/>
</linearGradient>
<linearGradient id="paint1_linear" x1="115.5" y1="38.5" x2="64.5" y2="59.5" gradientUnits="userSpaceOnUse">
<stop stop-color="#EF6BEA"/>
<stop offset="1" stop-color="#163FCF" stop-opacity="0.6"/>
</linearGradient>
<linearGradient id="paint2_linear" x1="46.5" y1="-4.22349e-06" x2="53" y2="49.5" gradientUnits="userSpaceOnUse">
<stop stop-color="#EF6BEA"/>
<stop offset="1" stop-color="#163FCF" stop-opacity="0.6"/>
</linearGradient>
<linearGradient id="paint3_linear" x1="85" y1="111" x2="64" y2="78" gradientUnits="userSpaceOnUse">
<stop stop-color="#EF6BEA"/>
<stop offset="1" stop-color="#163FCF" stop-opacity="0.6"/>
</linearGradient>
<linearGradient id="paint4_linear" x1="27.5" y1="103" x2="43.5" y2="67.5" gradientUnits="userSpaceOnUse">
<stop stop-color="#EF6BEA"/>
<stop offset="1" stop-color="#163FCF" stop-opacity="0.6"/>
</linearGradient>
<clipPath id="clip0">
<rect width="110" height="111" fill="white"/>
</clipPath>
</defs>
</svg>
