<svg width="87" height="88" viewBox="0 0 87 88" fill="none" xmlns="http://www.w3.org/2000/svg">
<g clip-path="url(#clip0)">
<path d="M43.3349 44.3675C41.0549 52.6011 21.0417 57.9447 13.8349 54.0824C8.95858 51.4684 3.95454 44.6541 3.95454 40.6279C3.95454 39.171 5.7467 35.854 6.74804 35.4576C7.04446 35.3404 7.15463 34.2837 7.08245 32.2492C7.01064 30.2163 7.13529 29.0213 7.46019 28.6257C8.66253 27.1605 10.5892 25.8811 13.1509 24.8468C15.7182 23.8106 16.3099 23.7271 21.0859 23.7271C30.4681 23.7271 45.2241 37.5455 43.3349 44.3675Z" fill="url(#paint0_linear)"/>
<path d="M44.4561 44.3675C46.7361 52.6011 66.7493 57.9447 73.9562 54.0824C78.8324 51.4684 83.8365 44.6541 83.8365 40.6279C83.8365 39.171 82.0443 35.854 81.043 35.4576C80.7466 35.3404 80.6364 34.2837 80.7086 32.2492C80.7804 30.2163 80.6557 29.0213 80.3308 28.6257C79.1285 27.1605 77.2018 25.8811 74.6401 24.8468C72.0728 23.8106 71.4811 23.7271 66.7051 23.7271C57.3229 23.7271 42.5669 37.5455 44.4561 44.3675Z" fill="url(#paint1_linear)"/>
<path d="M44.8543 45.1215C36.2174 45.1205 25.316 26.5747 27.0023 18.2936C28.144 12.6902 33.3228 5.79567 37.2276 4.68052C38.6406 4.27698 42.3697 5.15156 43.0402 6.04374C43.2387 6.30788 44.2949 6.12546 46.2474 5.48974C48.1985 4.85483 49.3931 4.64855 49.8697 4.86409C51.6342 5.66137 53.4256 7.23493 55.1607 9.51172C56.8994 11.7937 57.1495 12.3626 58.5143 17.1416C61.1954 26.5297 52.0104 45.1223 44.8543 45.1215Z" fill="url(#paint2_linear)"/>
<path d="M44.1059 43.9276C51.6559 39.7331 70.1934 50.6486 72.7419 58.7063C74.4658 64.1587 73.288 72.7008 70.4165 75.5723C69.3774 76.6114 65.693 77.6583 64.6735 77.2042C64.3717 77.0697 63.5371 77.7422 62.1392 79.2464C60.7421 80.7491 59.7981 81.5097 59.2769 81.5527C57.3472 81.713 55.017 81.2077 52.3944 80.0604C49.7662 78.9102 49.2712 78.5344 45.7569 75.02C38.8531 68.1162 37.8503 47.4029 44.1059 43.9276Z" fill="url(#paint3_linear)"/>
<path d="M43.147 43.9276C35.5971 39.7331 17.0596 50.6486 14.5111 58.7063C12.7872 64.1587 13.9649 72.7008 16.8364 75.5723C17.8755 76.6114 21.5599 77.6583 22.5795 77.2042C22.8812 77.0697 23.7159 77.7422 25.1138 79.2464C26.5108 80.7491 27.4548 81.5097 27.976 81.5527C29.9057 81.713 32.2359 81.2077 34.8585 80.0604C37.4867 78.9102 37.9817 78.5344 41.4961 75.02C48.3999 68.1162 49.4026 47.4029 43.147 43.9276Z" fill="url(#paint4_linear)"/>
<g clip-path="url(#clip1)">
<g clip-path="url(#clip2)">
<circle cx="34.4046" cy="51.0133" r="1.18636" transform="rotate(-90 34.4046 51.0133)" fill="white"/>
<circle cx="34.4046" cy="43.8952" r="1.18636" transform="rotate(-90 34.4046 43.8952)" fill="white"/>
<circle cx="34.4046" cy="36.777" r="1.18636" transform="rotate(-90 34.4046 36.777)" fill="white"/>
</g>
<g clip-path="url(#clip3)">
<circle cx="43.1048" cy="51.0133" r="1.18636" transform="rotate(-90 43.1048 51.0133)" fill="white"/>
<circle cx="43.1048" cy="43.8952" r="1.18636" transform="rotate(-90 43.1048 43.8952)" fill="white"/>
<circle cx="43.1048" cy="36.777" r="1.18636" transform="rotate(-90 43.1048 36.777)" fill="white"/>
</g>
<g clip-path="url(#clip4)">
<circle cx="51.8045" cy="51.0133" r="1.18636" transform="rotate(-90 51.8045 51.0133)" fill="white"/>
<circle cx="51.8045" cy="43.8952" r="1.18636" transform="rotate(-90 51.8045 43.8952)" fill="white"/>
<circle cx="51.8045" cy="36.777" r="1.18636" transform="rotate(-90 51.8045 36.777)" fill="white"/>
</g>
</g>
</g>
<defs>
<linearGradient id="paint0_linear" x1="-1.97728" y1="29.6589" x2="30.45" y2="45.0816" gradientUnits="userSpaceOnUse">
<stop stop-color="#EF6BEA"/>
<stop offset="1" stop-color="#163FCF" stop-opacity="0.6"/>
</linearGradient>
<linearGradient id="paint1_linear" x1="91.3501" y1="30.4498" x2="51.0137" y2="47.0589" gradientUnits="userSpaceOnUse">
<stop stop-color="#EF6BEA"/>
<stop offset="1" stop-color="#163FCF" stop-opacity="0.6"/>
</linearGradient>
<linearGradient id="paint2_linear" x1="36.7774" y1="-0.000538939" x2="41.9183" y2="39.1495" gradientUnits="userSpaceOnUse">
<stop stop-color="#EF6BEA"/>
<stop offset="1" stop-color="#163FCF" stop-opacity="0.6"/>
</linearGradient>
<linearGradient id="paint3_linear" x1="67.2273" y1="87.7905" x2="50.6182" y2="61.6905" gradientUnits="userSpaceOnUse">
<stop stop-color="#EF6BEA"/>
<stop offset="1" stop-color="#163FCF" stop-opacity="0.6"/>
</linearGradient>
<linearGradient id="paint4_linear" x1="21.7498" y1="81.4632" x2="34.4044" y2="53.3859" gradientUnits="userSpaceOnUse">
<stop stop-color="#EF6BEA"/>
<stop offset="1" stop-color="#163FCF" stop-opacity="0.6"/>
</linearGradient>
<clipPath id="clip0">
<rect width="87" height="87.7909" fill="white"/>
</clipPath>
<clipPath id="clip1">
<rect width="16.6091" height="19.7727" fill="white" transform="translate(33.2183 52.1997) rotate(-90)"/>
</clipPath>
<clipPath id="clip2">
<rect width="16.6091" height="2.37273" fill="white" transform="translate(33.2183 52.1997) rotate(-90)"/>
</clipPath>
<clipPath id="clip3">
<rect width="16.6091" height="2.37273" fill="white" transform="translate(41.9185 52.1997) rotate(-90)"/>
</clipPath>
<clipPath id="clip4">
<rect width="16.6091" height="2.37273" fill="white" transform="translate(50.6182 52.1997) rotate(-90)"/>
</clipPath>
</defs>
</svg>
