<svg width="26" height="25" viewBox="0 0 26 25" fill="none" xmlns="http://www.w3.org/2000/svg">
<path fill-rule="evenodd" clip-rule="evenodd" d="M19.0105 6.01049C18.6417 5.64166 18.0437 5.64166 17.6748 6.01049L13.0002 10.6851L8.32541 6.01024C7.95658 5.64141 7.35859 5.64141 6.98976 6.01024C6.62093 6.37907 6.62093 6.97706 6.98976 7.34589L11.6646 12.0207L6.98967 16.6957C6.62084 17.0645 6.62084 17.6625 6.98967 18.0313C7.3585 18.4001 7.95649 18.4001 8.32532 18.0313L13.0002 13.3564L17.6749 18.0311C18.0438 18.3999 18.6417 18.3999 19.0106 18.0311C19.3794 17.6622 19.3794 17.0642 19.0106 16.6954L14.3359 12.0207L19.0105 7.34613C19.3793 6.9773 19.3793 6.37931 19.0105 6.01049Z" fill="#C4C4C4"/>
</svg>
