<svg width="20px" height="20px" enable-background="new 0 0 223.9691 204" viewBox="0 0 223.9691 204" xml:space="preserve" xmlns="http://www.w3.org/2000/svg" xmlns:xlink="http://www.w3.org/1999/xlink"><path d="M223.8521,64.8676c0.0232-0.1016,0.0608-0.1948,0.0756-0.2976c0.0649-0.4488,0.054-0.9016-0.0364-1.3504  c-0.0212-0.1064-0.068-0.2032-0.098-0.3084c-0.0624-0.2184-0.106-0.4404-0.2072-0.6496c-0.0668-0.138-0.1708-0.2468-0.2512-0.3748  c-0.0423-0.0668-0.048-0.1456-0.0943-0.2112l-30-42c-0.4225-0.5904-0.9977-0.9716-1.6149-1.2536  c-0.3976-0.916-1.104-1.6824-2.0531-2.094l-37-16C152.0705,0.1132,151.5313,0,150.9846,0h-78c-0.5469,0-1.0861,0.1132-1.588,0.328  l-37,16c-0.9493,0.4116-1.6553,1.1776-2.0529,2.0932c-0.6176,0.2816-1.1928,0.6636-1.6151,1.2544l-30,42  c-0.0465,0.0656-0.052,0.1444-0.0945,0.2112c-0.0804,0.128-0.1844,0.2368-0.2512,0.3748c-0.1012,0.2092-0.1448,0.4312-0.2072,0.6496  c-0.03,0.1052-0.0768,0.202-0.098,0.3084c-0.0904,0.4488-0.1011,0.9016-0.0364,1.3504c0.0148,0.1028,0.0524,0.196,0.0756,0.2976  c0.0788,0.352,0.204,0.6876,0.3776,1.0108c0.0644,0.12,0.1264,0.2332,0.2032,0.3468c0.0572,0.0852,0.0896,0.1816,0.154,0.2632  l108,136c0.0316,0.0392,0.0824,0.054,0.1152,0.092c0.342,0.3996,0.744,0.7272,1.206,0.9632c0.0736,0.0376,0.148,0.0596,0.224,0.0928  c0.4972,0.2168,1.0277,0.3636,1.5877,0.3636c0.56,0,1.0903-0.1468,1.5875-0.3636c0.076-0.0332,0.1504-0.0552,0.224-0.0928  c0.462-0.236,0.864-0.5636,1.206-0.9632c0.0328-0.038,0.0836-0.0528,0.1152-0.092l108-136c0.0644-0.0816,0.0968-0.178,0.154-0.2632  c0.0768-0.1136,0.1388-0.2268,0.2032-0.3468C223.6481,65.5552,223.7733,65.2196,223.8521,64.8676z M73.8126,8h76.344  l28.6755,12.3984L149.9729,36H73.9961L45.1369,20.3984L73.8126,8z M62.9493,108h98.0704l-49.0351,84.0624L62.9493,108z M63.1077,100  l14-56h69.872l16.258,56H63.1077z M11.2029,60.7764l25.5724-35.8012l32.4564,17.544L55.6309,96.922L11.4201,60.8984  C11.3545,60.8452,11.2713,60.8252,11.2029,60.7764z M52.0229,104.3036c0.0457,0.5928,0.1964,1.1804,0.5064,1.712l27.8704,47.778  L21.0665,79.078L52.0229,104.3036z M143.5673,153.7968l27.8724-47.7812c0.31-0.5316,0.4609-1.1192,0.5064-1.712l30.9585-25.2256  L143.5673,153.7968z M170.2293,95.3812l-15.3668-52.9296l32.3312-17.4764l25.5716,35.8004  c-0.0687,0.0492-0.1527,0.0692-0.2184,0.1228L170.2293,95.3812z" fill="#ec863d" /></svg>