<svg width="20px" height="20px" enable-background="new 0 0 128 128" id="Слой_1" version="1.1" viewBox="0 0 128 128" xml:space="preserve" xmlns="http://www.w3.org/2000/svg" xmlns:xlink="http://www.w3.org/1999/xlink"><g><path d="M110,23.2L88.8,2H16v124h94V23.2z M90,8.8L103.2,22H90V8.8z M20,122V6h66v20h20v96H20z" fill="#ec863d"/><rect fill="#ec863d" height="4" width="30" x="49" y="22"/><rect fill="#ec863d" height="4" width="60" x="34" y="38"/><rect fill="#ec863d" height="4" width="60" x="34" y="48"/><rect fill="#ec863d" height="4" width="60" x="34" y="58"/><rect fill="#ec863d" height="4" width="60" x="34" y="68"/><path d="M83,82c-6.6,0-12,5.4-12,12c0,4,2,7.5,5,9.7V116l7-2.8l7,2.8v-9h-4v3l-3-1.2l-3,1.2v-4.4c1,0.2,2,0.4,3,0.4   c6.6,0,12-5.4,12-12S89.6,82,83,82z M83,102c-4.4,0-8-3.6-8-8s3.6-8,8-8s8,3.6,8,8S87.4,102,83,102z" fill="#ec863d"/></g></svg>