<svg version="1.1" xmlns="http://www.w3.org/2000/svg" xmlns:xlink="http://www.w3.org/1999/xlink" x="0px" y="0px" width="20px" height="20px"
	 viewBox="0 0 19 20" style="enable-background:new 0 0 19 20;" xml:space="preserve">
<style type="text/css">
	.st0{fill:#ec863d;}
</style>
<path class="st0" d="M3.1,9.6C3,9.8,3,10.2,3.1,10.4l3.2,3.2c0.2,0.2,0.5,0.2,0.7,0c0.2-0.2,0.2-0.5,0-0.7L4.2,10L7,7.2
	C7.2,7,7.2,6.7,7,6.5c-0.2-0.2-0.5-0.2-0.7,0L3.1,9.6z M14.9,10.4c0.2-0.2,0.2-0.5,0-0.7l-3.2-3.2c-0.2-0.2-0.5-0.2-0.7,0
	c-0.2,0.2-0.2,0.5,0,0.7l2.8,2.8L11,12.8c-0.2,0.2-0.2,0.5,0,0.7c0.2,0.2,0.5,0.2,0.7,0L14.9,10.4z M3.5,10.5h11v-1h-11L3.5,10.5z"
	/>
</svg>
