<svg xmlns="http://www.w3.org/2000/svg" xmlns:xlink="http://www.w3.org/1999/xlink" x="0px" y="0px"
	 width="20px" height="20px" viewBox="0 0 536.251 536.251" style="enable-background:new 0 0 536.251 536.251;"
	 xml:space="preserve">
<g>
	<g>
		<path d="M134.626,87.216c15.3,78.413,26.775,95.625,57.375,95.625v-19.125c-19.125,0-24.862-9.562-40.163-80.325
			c-17.212-84.15-107.1-95.625-141.525-40.162c-26.775,43.987,1.913,120.487,47.812,120.487v-19.125
			c-30.6,0-49.725-57.375-30.6-89.888C54.301,12.628,121.238,22.191,134.626,87.216z" fill="#ec863d" />
		<path d="M524.776,324.367L268.501,68.091h-99.45c1.913,3.825,1.913,7.65,3.825,11.475c0,1.913,0,3.825,1.913,7.65h86.062
			l252.45,250.538c7.65,7.65,7.65,19.125,0,26.775l-137.7,137.7c-7.649,7.649-19.125,7.649-26.774,0L96.376,249.778V106.341
			c0-9.562,7.65-19.125,17.212-19.125c-1.913-7.65-3.825-13.388-7.65-17.212c-15.3,3.825-28.688,17.212-28.688,36.337v153
			l256.275,256.276c15.3,15.3,40.162,15.3,53.55,0l137.7-137.7C540.076,362.617,540.076,339.667,524.776,324.367z" fill="#ec863d" />
		<path d="M182.438,201.966L182.438,201.966C180.526,201.966,180.526,201.966,182.438,201.966
			c-22.95-1.913-36.337-13.388-47.812-38.25c0,3.825,0,5.737,0,9.562c0,26.775,21.038,47.812,47.812,47.812
			s47.812-21.038,47.812-47.812s-21.038-47.812-47.812-47.812l0,0c3.825,9.562,5.737,17.212,7.65,19.125l0,0
			c11.475,3.825,21.038,15.3,21.038,26.775C211.126,188.578,197.738,201.966,182.438,201.966z" fill="#ec863d" />
	</g>
</g>
</svg>
