<svg width="31" height="16" viewBox="0 0 31 16" fill="none" xmlns="http://www.w3.org/2000/svg">
<g clip-path="url(#clip0)">
<path d="M10.5029 15.9795C14.9156 15.9795 18.4927 12.4024 18.4927 7.98977C18.4927 3.57714 14.9156 0 10.5029 0C6.09032 0 2.51318 3.57714 2.51318 7.98977C2.51318 12.4024 6.09032 15.9795 10.5029 15.9795Z" fill="black"/>
<path d="M20.4297 15.9795C24.8423 15.9795 28.4195 12.4024 28.4195 7.98977C28.4195 3.57714 24.8423 0 20.4297 0C16.0171 0 12.4399 3.57714 12.4399 7.98977C12.4399 12.4024 16.0171 15.9795 20.4297 15.9795Z" fill="#5F5F5F"/>
<path d="M12.4399 7.98949C12.4399 10.5264 13.6225 12.7869 15.4663 14.2505C17.31 12.7869 18.4927 10.5264 18.4927 7.98949C18.4927 5.45257 17.3101 3.19205 15.4663 1.72852C13.6226 3.19218 12.4399 5.45263 12.4399 7.98949Z" fill="#7B7B7B"/>
</g>
<defs>
<clipPath id="clip0">
<rect width="31" height="15.9189" fill="white"/>
</clipPath>
</defs>
</svg>
