<svg width="47" height="14" viewBox="0 0 47 14" fill="none" xmlns="http://www.w3.org/2000/svg">
<path fill-rule="evenodd" clip-rule="evenodd" d="M7.35397 1.51167C7.71786 1.50948 8.79932 1.41173 9.2574 2.96331C9.56597 4.00847 10.0575 5.7205 10.732 8.09938H11.0067C11.73 5.59139 12.2269 3.87937 12.4974 2.96331C12.9603 1.39557 14.1174 1.5117 14.5803 1.5117L18.1513 1.5117V12.6601H14.5116V6.09015H14.2675L12.2386 12.6601H9.50015L7.47119 6.08528H7.22712V12.6601H3.5874V1.5117L7.35397 1.51167ZM23.3779 1.5117V8.08651H23.6682L26.1363 2.68009C26.6154 1.6042 27.6365 1.5117 27.6365 1.5117H31.1586V12.6601H27.4429V6.08528H27.1525L24.7329 11.4917C24.2538 12.5627 23.1843 12.6601 23.1843 12.6601H19.6621V1.5117H23.3779ZM44.0018 6.80949C43.4835 8.28351 41.8558 9.33916 40.0538 9.33916H36.1571V12.6601H32.6237V6.80949H44.0018Z" fill="black"/>
<path fill-rule="evenodd" clip-rule="evenodd" d="M40.2243 1.51123H32.4385C32.6238 3.99324 34.7536 6.118 36.9584 6.118H44.2475C44.6681 4.05516 43.22 1.51123 40.2243 1.51123Z" fill="#5F5F5F"/>
</svg>
