<svg width="46" height="17" viewBox="0 0 46 17" fill="none" xmlns="http://www.w3.org/2000/svg">
<g clip-path="url(#clip0)">
<path d="M45.3834 8.61574C45.3232 8.26885 45.0309 8.06072 44.6082 8.05609C44.4778 8.05424 44.3483 8.0672 44.2215 8.05332C43.9718 8.02742 43.9061 8.11067 43.9079 8.30863C43.92 9.27992 43.9163 10.2503 43.9126 11.2188C43.9098 11.7266 43.414 12.2484 42.8182 12.3807C40.9682 12.7867 39.1199 13.1993 37.268 13.6017C37.0599 13.647 36.8406 13.6702 36.6288 13.6683C36.5363 13.6683 36.4086 13.598 36.3689 13.5296C36.343 13.4842 36.4244 13.3741 36.4882 13.3177C36.5724 13.2493 36.6797 13.1947 36.7898 13.1568C37.1292 13.0356 37.4743 12.9255 37.8175 12.8117C39.1912 12.3548 40.5676 11.9033 41.9395 11.4436C42.5583 11.2345 42.8922 10.822 42.9024 10.3012C42.9339 8.61389 42.9181 6.92662 42.9107 5.2375C42.9107 4.97016 42.772 4.74723 42.4538 4.6316C42.0875 4.50024 41.7655 4.60477 41.4473 4.75648C39.5029 5.68429 37.5594 6.61026 35.6131 7.53622C35.0405 7.80911 34.7214 8.2041 34.7241 8.76652C34.7306 10.3622 34.726 11.9551 34.7278 13.549C34.7278 13.6285 34.7362 13.7099 34.7611 13.7858C34.9526 14.3279 35.4494 14.6387 36.1358 14.6387C37.5039 14.6424 38.8766 14.6405 40.2457 14.6405C41.6101 14.6405 42.9699 14.6424 44.3344 14.6387C44.6304 14.6387 44.9033 14.5776 45.1253 14.3945C45.413 14.1632 45.3982 13.869 45.3982 13.5758C45.4009 12.0217 45.4009 10.4695 45.3991 8.91268C45.4019 8.81555 45.4 8.7138 45.3834 8.61574ZM39.6944 8.11715C39.8322 7.75916 40.1328 7.5353 40.5917 7.47794C40.8951 7.43909 41.1596 7.62688 41.2031 7.90069C41.2688 8.3225 40.7415 8.81278 40.2207 8.81093C39.786 8.81093 39.5436 8.50659 39.6944 8.11715Z" fill="black"/>
<path d="M7.04154 1.94896C7.04154 2.44108 7.04154 2.92303 7.04154 3.4096C6.66875 3.4096 6.32186 3.4096 5.94814 3.4096C5.94814 2.91285 5.94814 2.43091 5.94814 1.94434C5.74556 1.94434 5.5698 1.94434 5.37646 1.94434C5.37646 3.16261 5.37646 4.35961 5.37646 5.55939C5.57627 5.55939 5.75666 5.55939 5.96571 5.55939C5.96571 5.01177 5.96571 4.47894 5.96571 3.94057C6.33573 3.94057 6.678 3.94057 7.04524 3.94057C7.04524 4.48634 7.04524 5.02009 7.04524 5.56124C7.25337 5.56124 7.43375 5.56124 7.62709 5.56124C7.62709 4.35129 7.62709 3.15244 7.62709 1.94896C7.42913 1.94896 7.24874 1.94896 7.04154 1.94896Z" fill="black"/>
<path d="M21.5841 11.8994C21.412 11.0401 20.7589 10.5184 19.7164 10.4323C19.3057 10.4009 18.8876 10.4268 18.4445 10.4268C18.4445 9.66918 18.4445 8.90324 18.4445 8.13916C18.13 8.13916 17.845 8.13916 17.5527 8.13916C17.5527 10.2445 17.5527 12.3351 17.5527 14.4997C18.2123 14.4997 18.8496 14.5377 19.4787 14.4896C20.4213 14.4193 21.14 14.0446 21.4768 13.2759C21.6729 12.83 21.6766 12.3657 21.5841 11.8994ZM20.2048 12.8633C20.0392 13.5664 19.3196 13.8975 18.4519 13.6922C18.4519 12.9114 18.4482 12.1437 18.4593 11.374C18.4593 11.3231 18.5481 11.2399 18.6119 11.2279C19.4796 11.0438 20.0596 11.3324 20.2104 12.0567C20.264 12.3166 20.2659 12.6025 20.2048 12.8633Z" fill="black"/>
<path d="M3.98227 1.82608e-05C3.66683 1.82608e-05 3.35324 0.0009433 3.03873 1.82608e-05C2.59471 -0.00183182 2.22654 0.136924 1.92405 0.404261C0.885236 1.32375 1.15812 3.07022 2.54013 3.44302C2.07576 4.1405 1.61417 4.83613 1.13037 5.56506C1.3274 5.56506 1.47911 5.55488 1.62712 5.56783C1.82323 5.58541 1.92405 5.52158 2.01471 5.37635C2.36067 4.81485 2.72791 4.26168 3.08683 3.7048C3.25241 3.44949 3.27276 3.44209 3.66313 3.51702C3.66313 4.19045 3.66313 4.86943 3.66313 5.54748C3.89901 5.54748 4.10345 5.54748 4.32546 5.54748C4.32546 5.43092 4.32546 5.33287 4.32546 5.23297C4.32546 3.58085 4.32546 1.9278 4.32546 0.274756C4.32546 1.90773e-05 4.32453 0.0009433 3.98227 1.82608e-05ZM3.64463 2.93424C3.19413 2.92962 2.72421 3.04155 2.38102 2.70391C1.98788 2.31817 1.87595 1.8723 2.02118 1.38295C2.03321 1.3441 2.05264 1.3071 2.06836 1.2701C2.36067 0.597595 2.74641 0.410736 3.64463 0.522666C3.64463 1.32653 3.64463 2.11928 3.64463 2.93424Z" fill="black"/>
<path d="M20.3536 5.04014C19.3722 5.36761 18.695 5.07159 18.5174 4.21686C18.424 3.77376 18.4573 3.3279 18.6192 2.8959C18.8375 2.30573 19.2713 2.12997 19.9929 2.32515C20.0067 2.32885 20.0234 2.32238 20.0484 2.31868C20.1205 2.22895 20.1945 2.1346 20.275 2.03377C19.6793 1.64248 18.8625 1.7359 18.4184 2.22988C18.0753 2.61099 17.9411 3.05223 17.8977 3.51568C17.8486 4.04758 17.9143 4.56375 18.2658 5.03089C18.634 5.51931 19.2723 5.74872 19.929 5.59517C20.3925 5.48601 20.4443 5.43791 20.3536 5.04014Z" fill="black"/>
<path d="M4.81483 13.7487C4.81483 11.8709 4.81483 10.0143 4.81483 8.14111C3.66501 8.14111 2.55126 8.14111 1.46526 8.14111C1.41901 9.09298 1.39681 10.0291 1.32096 10.9634C1.25343 11.7922 1.07027 12.6054 0.703955 13.3879C0.582775 13.646 0.437544 13.8162 0.0675279 13.7543C0.048102 13.7515 0.024051 13.7663 0 13.7755C0 14.4638 0 15.1483 0 15.8328C0.337639 15.8328 0.655853 15.8328 0.999967 15.8328C0.999967 15.3675 0.999967 14.9207 0.999967 14.4749C2.21454 14.4749 3.40507 14.4749 4.6215 14.4749C4.6215 14.9355 4.6215 15.3814 4.6215 15.8365C4.96006 15.8365 5.27087 15.8365 5.59279 15.8365C5.59279 15.1409 5.59279 14.4545 5.59279 13.7487C5.32545 13.7487 5.07847 13.7487 4.81483 13.7487ZM3.72976 13.7413C2.97863 13.7413 2.23582 13.7413 1.53742 13.7413C1.72427 13.2732 1.95276 12.8126 2.09151 12.3343C2.36995 11.3732 2.3681 10.3871 2.3755 9.40379C2.37735 9.25209 2.3755 9.09853 2.3755 8.93202C2.82969 8.93202 3.27001 8.93202 3.73068 8.93202C3.72976 10.5231 3.72976 12.1188 3.72976 13.7413Z" fill="black"/>
<path d="M14.2282 5.089C14.0589 5.13802 13.8961 5.19723 13.7259 5.23145C13.2513 5.32766 12.9128 5.2222 12.7324 4.92341C12.5206 4.57375 12.5307 4.19818 12.5437 3.80504C13.1524 3.80504 13.737 3.80504 14.3336 3.80504C14.3725 3.21672 14.3003 2.66539 13.9275 2.16402C13.6001 1.7237 13.033 1.6534 12.5825 2.01509C12.4133 2.15015 12.2708 2.32313 12.1709 2.49888C11.8915 2.98823 11.7851 3.5155 11.8508 4.05018C11.8925 4.38226 11.984 4.7199 12.1256 5.03257C12.3309 5.49231 12.8055 5.72727 13.354 5.66899C13.6195 5.64124 13.885 5.56632 14.1347 5.47936C14.4132 5.38316 14.4206 5.29435 14.2282 5.089ZM12.8406 2.43783C13.0423 2.18715 13.3753 2.19455 13.5538 2.45726C13.7536 2.74865 13.7777 3.07056 13.7694 3.4082C13.3355 3.4082 12.9387 3.4082 12.5224 3.4082C12.5418 3.05483 12.6094 2.72737 12.8406 2.43783Z" fill="black"/>
<path d="M15.8739 8.25939C15.8351 8.21221 15.786 8.14098 15.737 8.13913C15.4419 8.12711 15.1459 8.13173 14.8194 8.13173C14.8194 9.0096 14.8194 9.87543 14.8194 10.7459C14.1774 10.7459 13.5669 10.7459 12.9045 10.7459C12.9045 9.86803 12.9045 9.00775 12.9045 8.13636C12.5466 8.13636 12.22 8.13636 11.8833 8.13636C11.8833 10.2686 11.8833 12.3897 11.8833 14.521C12.2302 14.521 12.5623 14.521 12.9175 14.521C12.9175 14.4285 12.9175 14.3489 12.9175 14.2712C12.9175 13.5256 12.9166 12.7847 12.9175 12.04C12.9175 11.6302 12.9175 11.6302 13.4078 11.6302C13.8721 11.6302 14.3365 11.6302 14.8268 11.6302C14.8268 12.6117 14.8268 13.5636 14.8268 14.5228C15.1866 14.5228 15.5196 14.5228 15.8647 14.5228C15.8693 14.4525 15.8767 14.3924 15.8767 14.335C15.8767 12.3351 15.8767 10.3352 15.8767 8.33709C15.8767 8.31027 15.8896 8.27697 15.8739 8.25939Z" fill="black"/>
<path d="M16.4443 3.36261C16.8014 2.9519 17.1427 2.53285 17.4896 2.11751C17.5322 2.06663 17.5692 2.01298 17.6284 1.93528C17.5165 1.93528 17.4508 1.94268 17.3888 1.93435C17.1353 1.90013 16.9809 1.98246 16.843 2.16376C16.5387 2.56338 16.2011 2.9445 15.8754 3.33209C15.8384 3.37557 15.7922 3.41349 15.7034 3.49952C15.7034 2.94357 15.7034 2.4496 15.7034 1.94545C15.5036 1.94545 15.3287 1.94545 15.1382 1.94545C15.1382 3.13505 15.1382 4.30523 15.1382 5.47448C15.3324 5.47448 15.5073 5.47448 15.7117 5.47448C15.7117 5.05544 15.7025 4.64472 15.7173 4.23585C15.7228 4.09525 15.7876 3.95464 15.8246 3.81403C15.9346 3.88156 15.9818 3.94169 16.0234 4.00459C16.3185 4.44769 16.6099 4.89078 16.9078 5.3311C16.9466 5.38938 17.0132 5.468 17.0761 5.47633C17.2445 5.4976 17.4175 5.48373 17.6256 5.48373C17.2112 4.85285 16.8245 4.25713 16.4286 3.66418C16.3537 3.55317 16.3481 3.47269 16.4443 3.36261Z" fill="black"/>
<path d="M30.0323 8.11909C29.8658 8.11354 29.7909 8.16071 29.7317 8.28744C29.3311 9.16993 28.9204 10.0478 28.5124 10.9275C28.3339 11.3123 28.1489 11.6971 27.9685 12.082C27.951 12.0801 27.9371 12.0764 27.9195 12.0746C27.9195 10.7647 27.9195 9.45484 27.9195 8.13481C27.5606 8.13481 27.2276 8.13481 26.8862 8.13481C26.8862 10.2707 26.8862 12.3992 26.8862 14.5287C27.2276 14.5287 27.5495 14.5287 27.901 14.5287C28.5458 13.1356 29.1905 11.7369 29.8408 10.3262C29.8408 11.7304 29.8408 13.1282 29.8408 14.525C30.246 14.525 30.6215 14.525 31.0082 14.525C31.0082 12.3891 31.0082 10.268 31.0082 8.12371C30.6724 8.12371 30.3524 8.13296 30.0323 8.11909Z" fill="black"/>
<path d="M10.4669 13.6103C10.1496 13.7084 9.86376 13.8203 9.5622 13.8823C8.58258 14.083 7.94246 13.812 7.6631 13.1016C7.44756 12.5558 7.45589 11.9924 7.44664 11.3976C8.51968 11.3976 9.56035 11.3976 10.6436 11.3976C10.5992 10.9027 10.5945 10.4199 10.5048 9.95272C10.391 9.36717 10.1653 8.80567 9.69818 8.3339C9.28469 7.91671 8.78702 7.79553 8.16632 7.96389C7.52156 8.13872 7.12842 8.54389 6.86386 9.02398C6.08868 10.4328 6.02208 11.8842 6.61595 13.3476C6.79448 13.7898 7.09697 14.1746 7.60019 14.4207C8.44383 14.836 9.80826 14.6917 10.6639 14.0932C10.5964 13.9267 10.5279 13.7583 10.4669 13.6103ZM7.92951 9.08226C8.08029 8.87043 8.28102 8.69744 8.61774 8.71317C8.94705 8.73074 9.14223 8.9028 9.27451 9.12666C9.56683 9.62896 9.61585 10.1673 9.61308 10.7261C8.87675 10.7261 8.16539 10.7261 7.41611 10.7261C7.47161 10.135 7.57522 9.58086 7.92951 9.08226Z" fill="black"/>
<path d="M10.9468 5.07929C10.9468 4.02845 10.9468 2.99055 10.9468 1.94434C10.3113 1.94434 9.70172 1.94434 9.05697 1.94434C9.05697 2.1793 9.06529 2.3902 9.05604 2.60204C9.02459 3.33837 8.99777 4.07563 8.69065 4.78051C8.6148 4.95441 8.55837 5.14035 8.26514 5.10149C8.26514 5.49371 8.26514 5.86743 8.26514 6.23929C8.45014 6.23929 8.61573 6.23929 8.80998 6.23929C8.80998 5.98491 8.80998 5.74255 8.80998 5.50019C9.50191 5.50019 10.1642 5.50019 10.8571 5.50019C10.8571 5.75642 10.8571 5.99878 10.8571 6.23559C11.0514 6.23559 11.2151 6.23559 11.3723 6.23559C11.3723 5.84337 11.3723 5.46966 11.3723 5.09594C11.2243 5.09039 11.0985 5.08484 10.9468 5.07929ZM10.3502 5.07929C9.91911 5.07929 9.51394 5.07929 9.07732 5.07929C9.62957 4.22456 9.55464 3.30599 9.59442 2.38928C9.84695 2.38928 10.0912 2.38928 10.3502 2.38928C10.3502 3.28472 10.3502 4.17183 10.3502 5.07929Z" fill="black"/>
<path d="M22.5405 8.13281C22.5405 10.2734 22.5405 12.3982 22.5433 14.5239C22.8615 14.5239 23.164 14.5239 23.4878 14.5239C23.4878 12.6072 23.4878 10.7044 23.4878 8.77571C24.4609 8.77571 25.4155 8.77571 26.3674 8.77571C26.3674 8.54723 26.3674 8.34465 26.3674 8.13281C25.089 8.13281 23.8273 8.13281 22.5405 8.13281Z" fill="black"/>
</g>
<defs>
<clipPath id="clip0">
<rect width="45.4" height="16.8148" fill="white"/>
</clipPath>
</defs>
</svg>
