<svg width="36" height="16" viewBox="0 0 36 16" fill="none" xmlns="http://www.w3.org/2000/svg">
<g clip-path="url(#clip0)">
<path d="M14.5577 14.8272C14.4892 14.6397 14.365 14.5118 14.2751 14.3456C14.0567 14.06 13.7998 13.8128 13.5429 13.5657C13.453 13.5358 13.4145 13.4506 13.3289 13.4165C13.2732 13.344 13.1833 13.3057 13.1105 13.2503C12.9649 13.1395 12.8065 13.0457 12.6438 12.9519C12.3355 12.7559 11.9545 12.6323 11.5777 12.5044C11.1709 12.4064 10.7427 12.334 10.2975 12.2743C9.85645 12.2104 9.41544 12.1507 9.08147 11.976C8.8888 11.9206 8.74751 11.814 8.58052 11.7288C8.42638 11.6265 8.2594 11.5412 8.13095 11.4134C7.97253 11.3196 7.87405 11.1619 7.74989 11.0341C7.70707 10.9488 7.63428 10.8977 7.60003 10.8039C7.55721 10.7869 7.54437 10.7357 7.51868 10.7059C7.48871 10.6718 7.48871 10.6036 7.43733 10.5908C7.41164 10.7656 7.4202 10.9744 7.43733 11.1534C7.45873 11.2301 7.4673 11.3239 7.4887 11.4006C7.50155 11.4688 7.56577 11.5796 7.54008 11.6307C6.20421 11.5626 5.228 11.1406 4.38024 10.5866C3.96064 10.3095 3.60098 9.97285 3.26701 9.61059C3.12144 9.41028 2.96302 9.21849 2.83457 8.99687C2.70184 8.77951 2.59051 8.53232 2.47063 8.30217C2.27367 7.80353 2.08956 7.2921 2.02106 6.66559C1.93114 6.08171 1.95255 5.33587 2.08528 4.7946C2.13238 4.49627 2.23086 4.24481 2.31649 3.98484C2.37215 3.8655 2.43209 3.74617 2.48347 3.62257C2.55626 3.52029 2.59479 3.37964 2.68471 3.29014C2.92876 2.83412 3.2927 2.49316 3.6652 2.16499C4.06768 1.87092 4.52581 1.63225 5.07814 1.48735C5.60907 1.36801 6.33266 1.3467 6.9064 1.4703C8.07101 1.70897 8.94874 2.22892 9.68518 2.89378C10.4302 3.54586 11.0039 4.37267 11.3978 5.37849C11.8046 6.33316 11.9459 7.82057 11.582 8.9031C11.4321 8.81787 11.2822 8.73689 11.1324 8.65591C10.9525 8.60477 10.777 8.5451 10.5672 8.52379C10.3146 8.51953 10.0663 8.52379 9.90355 8.60477C10.2332 8.57067 10.4987 8.66018 10.7042 8.73689C10.8241 8.78377 10.8926 8.81361 10.9868 8.86901C11.1709 8.97556 11.3336 9.07358 11.4706 9.21849C11.8603 9.55944 12.1386 10.0112 12.2713 10.6079C12.2713 10.6249 12.2927 10.6207 12.2884 10.5908C12.3055 10.5866 12.3141 10.5738 12.3227 10.5567C12.3441 10.5312 12.3698 10.5056 12.3912 10.4758C12.434 10.4246 12.4768 10.3735 12.5068 10.3095C12.5967 10.203 12.6695 10.0837 12.738 9.96006C12.8964 9.72992 13.0163 9.46568 13.1533 9.21423C13.3888 8.67722 13.5815 8.0976 13.7014 7.44126C13.9411 5.98368 13.6543 4.60282 13.1533 3.58422C12.6395 2.55709 11.9202 1.73454 10.9911 1.11656C10.0534 0.50284 8.95731 0.0510747 7.45017 0.00845543C7.44161 -0.0213781 7.42876 0.0127174 7.39879 0.00845543C6.60241 -0.0171162 5.96016 0.0936941 5.3222 0.255647C5.02676 0.353672 4.71849 0.43891 4.45731 0.57103C4.15759 0.669055 3.91782 0.831008 3.6438 0.950342C3.54532 1.0441 3.39546 1.09099 3.2927 1.18049C3.15997 1.24442 3.06149 1.3467 2.92876 1.41063C2.71468 1.59816 2.48775 1.76437 2.27795 1.95616C2.07243 2.14368 1.89261 2.35678 1.69565 2.55283C1.66568 2.62102 1.6143 2.6679 1.56292 2.71904C1.52867 2.78297 1.48585 2.83838 1.43019 2.88526C1.40878 2.96197 1.34027 2.99181 1.31459 3.06852C1.25892 3.11114 1.24608 3.19638 1.18185 3.23474C1.12619 3.37112 1.02772 3.46914 0.963491 3.597C0.886421 3.7206 0.826479 3.85698 0.749409 3.97631C0.629523 4.25334 0.501074 4.52184 0.402596 4.82018C0.299837 5.10999 0.214204 5.41685 0.154262 5.74928C0.090037 6.0604 0.0300941 6.46528 0.0386573 6.79345C-0.00415902 6.91278 0.0300941 7.1344 0.0386573 7.27505C0.0386573 7.30062 0.0215308 7.30914 0.0215308 7.32619C0.0215308 7.48388 0.0643472 7.67567 0.0729104 7.77369C0.107164 8.13596 0.171388 8.47265 0.274147 8.76672C0.338372 9.09489 0.475384 9.35061 0.573862 9.64468C0.723719 9.89187 0.826479 10.1859 1.00631 10.4076C1.13904 10.6675 1.32743 10.8721 1.50726 11.0852C1.69993 11.2898 1.89261 11.4986 2.12381 11.6648C2.5477 12.0314 3.04437 12.3254 3.58813 12.5769C4.60288 13.067 6.11858 13.3867 7.48014 13.3057C7.82695 13.2588 8.17805 13.2162 8.49489 13.1395C8.78604 13.0329 9.12429 12.969 9.47538 12.9264C10.2761 12.8752 10.9697 12.9477 11.5862 13.1267C12.2114 13.2929 12.7508 13.5443 13.2175 13.8725C13.4659 14.0174 13.6714 14.2049 13.8812 14.3839C14.0953 14.5672 14.2665 14.7931 14.4635 14.9977C14.4892 15.0744 14.5406 15.1298 14.5791 15.198C14.6305 15.2534 14.6048 15.3812 14.729 15.3642C14.806 15.2875 14.7161 15.1767 14.7118 15.0829C14.6348 15.0019 14.6176 14.8954 14.5577 14.8272Z" fill="#5F5F5F"/>
<path d="M11.4494 10.293C11.4323 10.293 11.428 10.3057 11.4151 10.31C11.3852 10.3739 11.398 10.4762 11.4151 10.5402C11.5051 10.7234 11.535 10.9621 11.732 11.0388C11.8262 11.009 11.8176 10.8726 11.8133 10.7405C11.7705 10.5785 11.7106 10.4336 11.6121 10.3271C11.5436 10.3015 11.4965 10.2589 11.4494 10.293ZM10.2848 10.7575C10.2848 10.749 10.2719 10.7405 10.2677 10.7575C10.105 10.7362 10.0493 10.8257 9.96795 10.8896C9.82666 11.2604 10.0536 11.6227 10.4518 11.6184C10.6102 11.5801 10.7087 11.4778 10.7344 11.303C10.713 10.9919 10.5802 10.7916 10.2848 10.7575Z" fill="#5F5F5F"/>
<path d="M19.8837 9.57688C19.948 9.84538 20.085 10.0372 20.2391 10.2162C20.3932 10.3952 20.5731 10.5443 20.7914 10.6552C20.997 10.783 21.2196 10.8896 21.4765 10.962C21.6007 11.0046 21.7205 11.0558 21.8747 11.0728C21.9817 11.1325 22.1102 11.1623 22.1187 11.3158C22.1145 11.499 21.9903 11.5672 21.8319 11.6013C21.6735 11.5672 21.4765 11.5715 21.3438 11.5118C21.0098 11.4734 20.7401 11.3669 20.4575 11.2689C19.918 11.06 19.4641 10.7574 19.0873 10.3866C19.0103 10.2588 18.9032 10.1565 18.8219 10.0329C18.7405 9.90931 18.6849 9.76015 18.5992 9.63655C17.9399 9.55131 17.4903 9.25298 17.0964 8.90776C16.7324 8.49435 16.4413 7.99997 16.3214 7.34363C16.1801 6.71286 16.2229 5.92441 16.3899 5.31495C16.7538 4.1344 17.516 3.3502 18.9546 3.24365C19.3528 3.25644 19.6996 3.30332 20.0165 3.42265C20.3376 3.53773 20.6416 3.75082 20.8813 3.97244C20.9028 3.98949 20.9113 3.99375 20.9242 4.01506C20.9755 4.08751 21.0997 4.1898 21.1682 4.2793C21.1811 4.29635 21.1768 4.32618 21.1896 4.34749C21.2153 4.38585 21.2538 4.4029 21.2795 4.43699C21.2924 4.4583 21.2881 4.48387 21.3009 4.50092C21.3181 4.52649 21.3395 4.56485 21.3652 4.61173C21.3737 4.62878 21.4037 4.64157 21.408 4.65435C21.4465 4.7268 21.4637 4.81631 21.4979 4.89728C21.5322 4.98252 21.5793 5.05497 21.6092 5.14021C21.6949 5.39167 21.7505 5.69 21.7848 5.99686C21.8704 6.88334 21.6949 7.67606 21.3652 8.26421C21.211 8.57107 20.997 8.82252 20.7443 9.03562C20.5131 9.27855 20.1963 9.42345 19.8837 9.57688ZM18.8219 4.02785C18.6292 4.04063 18.5136 4.13013 18.3552 4.18128C18.2524 4.27504 18.124 4.34749 18.0469 4.46683C17.9185 4.53928 17.8842 4.70123 17.7814 4.795C17.6958 5.00809 17.6145 5.24676 17.5588 5.52379C17.5074 5.79655 17.4732 6.10341 17.4689 6.40601C17.4646 7.16463 17.6273 7.91899 17.9313 8.36649C18.1111 8.58385 18.3295 8.76285 18.595 8.89497C18.7491 8.90776 18.869 8.9589 19.036 8.96316C19.1302 8.92907 19.2843 8.96316 19.3442 8.89497C19.4813 8.9035 19.5112 8.814 19.6311 8.80547C19.6953 8.74154 19.7638 8.6904 19.8538 8.65204C19.9351 8.56254 20.0122 8.47304 20.0978 8.3878C20.1406 8.32387 20.1663 8.23437 20.2305 8.18749C20.6159 7.45444 20.6587 6.11193 20.4061 5.25955C20.3119 4.94843 20.1792 4.69697 20.0293 4.48814C19.8666 4.32192 19.6739 4.18128 19.4556 4.07047C19.28 4.03211 19.113 3.98523 18.8818 4.00654C18.869 4.00654 18.8561 4.0108 18.8604 4.02785C18.8519 4.02785 18.839 4.02785 18.8219 4.02785ZM23.4931 3.40987C23.84 3.42265 24.2467 3.38003 24.555 3.43118C24.6235 3.53773 24.5978 3.66558 24.5978 3.78492C24.6235 5.40019 24.5978 7.1348 24.5978 8.78416C24.5978 8.91628 24.6021 9.05266 24.5978 9.18052C24.5935 9.29133 24.6235 9.41067 24.555 9.51295C24.4009 9.55131 24.1782 9.53426 23.9813 9.53426C23.7715 9.53426 23.5659 9.5641 23.4289 9.49164C23.3904 7.53968 23.3904 5.43429 23.4289 3.47806C23.4375 3.44396 23.4589 3.42265 23.4931 3.40987ZM26.1478 3.40987H27.1882C27.2824 3.53773 27.3124 3.72951 27.3423 3.91704C27.6549 5.10185 27.9632 6.29093 28.25 7.50558C28.3186 7.51411 28.2971 7.43313 28.3186 7.39477C28.3485 7.36494 28.3314 7.29249 28.3614 7.26265C28.3742 7.16463 28.4342 7.11349 28.4299 6.99841C28.5069 6.84925 28.5326 6.64467 28.6054 6.49124C28.6953 6.13324 28.8152 5.80081 28.918 5.45559C29.0165 5.09759 29.1492 4.77369 29.2263 4.39864C29.3718 4.09604 29.4061 3.68263 29.5816 3.40987H30.0226C30.1811 3.7082 30.241 4.10456 30.378 4.42421C30.4679 4.78221 30.5921 5.10612 30.6863 5.45986C30.9047 6.14603 31.1316 6.82367 31.3285 7.53116C31.4185 7.39904 31.4185 7.17742 31.4827 7.02399C31.5212 6.84925 31.5555 6.67024 31.6154 6.51682C31.7867 5.81786 31.9494 5.11464 32.1463 4.44552C32.2191 4.09604 32.2919 3.73804 32.4118 3.43118C32.6687 3.39282 33.0626 3.39282 33.3195 3.43118C33.3409 3.69116 33.221 3.97244 33.144 4.20259C33.1011 4.48387 32.9984 4.70123 32.9427 4.974C32.7843 5.47264 32.6644 6.00112 32.5017 6.49551C32.3775 7.02399 32.2106 7.50985 32.0821 8.03833C31.9965 8.28126 31.9365 8.54976 31.8595 8.80973C31.7738 9.0484 31.7439 9.34248 31.6154 9.53853H30.9946C30.8362 9.2615 30.7805 8.88645 30.6392 8.59238C30.3309 7.62066 29.9884 6.68729 29.6887 5.70705C29.5859 5.8136 29.5859 6.03096 29.5131 6.16734C29.466 6.33355 29.4189 6.49977 29.359 6.6532C29.2734 6.98989 29.1449 7.27544 29.0721 7.62066C28.948 7.92325 28.858 8.25995 28.7638 8.59238C28.6354 8.88219 28.5883 9.25298 28.4299 9.51722C28.2672 9.56836 28.0103 9.52574 27.809 9.53853C27.6549 9.36379 27.6378 9.0484 27.5436 8.80973C27.4708 8.56254 27.4194 8.28978 27.3252 8.05964C27.2053 7.52263 27.0255 7.04956 26.9056 6.51682C26.7472 6.02243 26.6102 5.50674 26.4646 4.99531C26.3833 4.75238 26.3233 4.4924 26.242 4.24521C26.2034 3.98097 26.0236 3.7423 26.0878 3.45249C26.0964 3.43118 26.1221 3.41839 26.1478 3.40987ZM34.8866 3.40987C35.2334 3.42265 35.6359 3.38003 35.9484 3.43118C36.0255 3.66132 35.9912 3.90851 35.9912 4.15571V8.7799C35.9912 9.03135 36.0212 9.27429 35.9484 9.50869C35.7087 9.53426 35.3576 9.54705 35.0621 9.53C34.9765 9.52574 34.8737 9.55131 34.8181 9.48738C34.741 9.25724 34.7753 9.01431 34.7753 8.75859V4.18128C34.7753 3.90425 34.7496 3.63575 34.8181 3.45249C34.8352 3.43118 34.8609 3.41839 34.8866 3.40987Z" fill="black"/>
</g>
<defs>
<clipPath id="clip0">
<rect width="36" height="15.36" fill="white"/>
</clipPath>
</defs>
</svg>
