<svg width="61" height="19" viewBox="0 0 61 19" fill="none" xmlns="http://www.w3.org/2000/svg">
<g clip-path="url(#clip0)">
<path d="M57.5586 8.78216L56.127 10.0757L57.4197 11.5065L58.8513 10.2129L57.5586 8.78216Z" fill="black"/>
<path d="M54.7056 9.94639L52.7964 11.665L54.5158 13.5752L56.4251 11.8566L54.7056 9.94639Z" fill="black"/>
<path d="M60.1412 8.32697L59.1875 9.18652L60.0471 10.1402L61.0007 9.28063L60.1412 8.32697Z" fill="black"/>
<path d="M55.0132 2.88138L53.5801 4.17139L54.8701 5.60447L56.3032 4.31446L55.0132 2.88138Z" fill="black"/>
<path d="M58.9195 5.47653L57.9678 6.33643L58.8285 7.28906L59.7802 6.42917L58.9195 5.47653Z" fill="black"/>
<path d="M6.39859 5.55713L5.4632 10.4053H5.39839L4.1243 5.55713H3.30873L2.11778 10.4053H2.05298L1.0271 5.55713H0L1.4844 12.0548H2.47482L3.68411 7.4805H3.74892L4.99489 12.0548H5.98531L7.47093 5.55713H6.39859Z" fill="black"/>
<path d="M53.3505 6.63714L51.4395 8.35742L53.1589 10.2676L55.07 8.54731L53.3505 6.63714Z" fill="black"/>
<path d="M51.9859 3.38161L50.0757 5.10107L51.7951 7.01124L53.7053 5.29178L51.9859 3.38161Z" fill="black"/>
<path d="M56.3294 5.76342L54.8999 7.05371L56.1927 8.48596L57.6222 7.19567L56.3294 5.76342Z" fill="black"/>
<path d="M57.6939 2.64435L56.7402 3.50391L57.5998 4.45757L58.5535 3.59801L57.6939 2.64435Z" fill="black"/>
<path d="M42.0072 7.51758L40.9666 10.8936H40.9116L39.739 7.5188H38.7314L40.4897 12.1029C40.2696 12.7815 39.8857 13.2755 39.2621 13.2755V14.025C40.3149 14.025 40.8737 13.3659 41.3322 12.1004L42.989 7.51758H42.0072Z" fill="black"/>
<path d="M11.6677 9.60236C11.6689 8.1045 10.9634 7.36475 9.81767 7.36475C8.44331 7.36475 7.73779 8.37106 7.73779 9.76498C7.73779 11.2139 8.37117 12.1664 9.90938 12.1664C10.5684 12.1664 11.1187 11.983 11.5307 11.7422V11.0489C11.027 11.3484 10.5684 11.5245 10.0744 11.5245C9.13172 11.5245 8.68175 11.0403 8.68175 9.93861H11.6677V9.60236ZM8.70009 9.32357C8.80035 8.40897 9.23198 7.97734 9.79077 7.97734C10.286 7.97734 10.7531 8.36006 10.7983 9.32357H8.70009Z" fill="black"/>
<path d="M58.8197 11.678L57.3872 12.9688L58.6788 14.4022L60.1113 13.1114L58.8197 11.678Z" fill="black"/>
<path d="M38.4418 9.60236C38.4443 8.1045 37.7375 7.36475 36.5931 7.36475C35.2175 7.36475 34.5132 8.37106 34.5132 9.76498C34.5132 11.2139 35.1453 12.1664 36.6835 12.1664C37.3426 12.1664 37.8904 11.983 38.3037 11.7422V11.0489C37.8011 11.3484 37.3426 11.5245 36.8486 11.5245C35.9059 11.5245 35.4547 11.0403 35.4547 9.93861H38.4418V9.60236ZM35.473 9.32357C35.5757 8.40897 36.0074 7.97734 36.5662 7.97734C37.0589 7.97734 37.5285 8.36006 37.5737 9.32357H35.473Z" fill="black"/>
<path d="M56.3071 13.3013L54.44 15.0229L51.2878 11.5149L52.1645 10.7433L49.9574 8.27215L50.839 7.49938L48.599 5.03067L52.0948 1.88333L53.205 3.09874L55.0795 1.42603L56.1873 2.57418L56.9258 1.91268C56.7608 1.81731 56.5957 1.72927 56.4282 1.64979C55.3632 1.1289 54.1673 0.835449 52.9079 0.835449C48.4853 0.835449 44.877 4.44253 44.877 8.8664C44.877 13.289 48.4853 16.8961 52.9079 16.8961C54.3446 16.8961 55.6982 16.5159 56.8659 15.8495C57.2511 15.6318 57.602 15.3958 57.9224 15.1476L56.3071 13.3013Z" fill="black"/>
<path d="M14.6926 7.36487C14.1974 7.36487 13.7303 7.55684 13.454 7.70357V5.0918L12.5015 5.32045V11.7166C13.0517 12.0088 13.8025 12.1653 14.2891 12.1653C15.6182 12.1653 16.4424 11.3302 16.4424 9.61593C16.4424 8.15231 15.8285 7.36487 14.6926 7.36487ZM14.2891 11.5234C14.0592 11.5234 13.7401 11.5063 13.4466 11.3779V8.38096C13.8135 8.17921 14.08 8.07895 14.4444 8.07895C15.0582 8.07895 15.4813 8.45555 15.4813 9.61715C15.4813 11.1016 14.9677 11.5234 14.2891 11.5234Z" fill="black"/>
<path d="M32.1496 7.3623C31.0956 7.3623 30.2251 7.79271 29.813 8.0397V12.0527H30.7643V8.42486C31.048 8.25979 31.5163 8.09472 31.8819 8.09472C32.3526 8.09472 32.7084 8.22311 32.7084 8.94697V12.054H33.6609V8.73789C33.6609 7.79515 33.2477 7.36475 32.1496 7.3623Z" fill="black"/>
<path d="M22.6197 5.55713L20.6609 10.6792H20.6144L18.5614 5.55713H17.4536V12.0548H18.2777V7.4536H18.3597L20.2292 12.0548H20.8149L22.6845 7.34233H22.7664V12.0548H23.7556V5.55713H22.6197Z" fill="black"/>
<path d="M26.8528 7.36475C25.6436 7.36475 24.7632 8.16197 24.7632 9.76498C24.7632 11.3313 25.5983 12.1664 26.8528 12.1664C28.1086 12.1664 28.9425 11.3313 28.9425 9.76498C28.9425 8.16075 28.0621 7.36475 26.8528 7.36475ZM26.8528 11.5233C26.2023 11.5233 25.7255 11.022 25.7255 9.76498C25.7255 8.52757 26.2488 8.00546 26.8528 8.00546C27.4764 8.00546 27.9802 8.52757 27.9802 9.76498C27.9802 11.0207 27.5033 11.5233 26.8528 11.5233Z" fill="black"/>
</g>
<defs>
<clipPath id="clip0">
<rect width="61" height="18.3836" fill="white"/>
</clipPath>
</defs>
</svg>
