<svg width="32" height="10" viewBox="0 0 32 10" fill="none" xmlns="http://www.w3.org/2000/svg">
<g clip-path="url(#clip0)">
<path d="M11.7334 9.44803L13.3588 0.305176H15.8985L14.3239 9.44803H11.7334Z" fill="black"/>
<path d="M11.7334 9.44803L13.8159 0.305176H15.8985L14.3239 9.44803H11.7334Z" fill="black"/>
<path d="M23.5175 0.406349C23.0096 0.203174 22.1969 0 21.181 0C18.6413 0 16.8128 1.26984 16.8128 3.09841C16.8128 4.46984 18.0826 5.18095 19.0985 5.6381C20.1143 6.09524 20.4191 6.4 20.4191 6.80635C20.4191 7.41587 19.6064 7.72064 18.8953 7.72064C17.8794 7.72064 17.3207 7.56826 16.4572 7.2127L16.1016 7.06032L15.7461 9.14286C16.3556 9.39683 17.4731 9.65079 18.6413 9.65079C21.3334 9.65079 23.1112 8.38095 23.1112 6.4508C23.1112 5.38413 22.4509 4.57143 20.927 3.91111C20.0128 3.45397 19.454 3.2 19.454 2.74286C19.454 2.33651 19.9112 1.93016 20.927 1.93016C21.7905 1.93016 22.4001 2.08254 22.8572 2.28571L23.1112 2.3873L23.5175 0.406349Z" fill="black"/>
<path d="M23.5175 0.406349C23.0096 0.203174 22.1969 0 21.181 0C18.6413 0 17.2699 1.26984 17.2699 3.09841C17.2699 4.46984 18.0826 5.18095 19.0985 5.6381C20.1143 6.09524 20.4191 6.4 20.4191 6.80635C20.4191 7.41587 19.6064 7.72064 18.8953 7.72064C17.8794 7.72064 17.3207 7.56826 16.4572 7.2127L16.1016 7.06032L15.7461 9.14286C16.3556 9.39683 17.4731 9.65079 18.6413 9.65079C21.3334 9.65079 23.1112 8.38095 23.1112 6.4508C23.1112 5.38413 22.4509 4.57143 20.927 3.91111C20.0128 3.45397 19.454 3.2 19.454 2.74286C19.454 2.33651 19.9112 1.93016 20.927 1.93016C21.7905 1.93016 22.4001 2.08254 22.8572 2.28571L23.1112 2.3873L23.5175 0.406349Z" fill="black"/>
<path d="M27.886 0.305176C27.2765 0.305176 26.8194 0.35597 26.5654 0.965494L22.7559 9.44803H25.4987L26.0067 7.92422H29.2574L29.5622 9.44803H32.0003L29.867 0.305176H27.886ZM26.7178 6.40041C26.8701 5.94327 27.7336 3.70835 27.7336 3.70835C27.7336 3.70835 27.9368 3.14962 28.0892 2.79407L28.2416 3.65756C28.2416 3.65756 28.7495 5.94327 28.8511 6.45121H26.7178V6.40041Z" fill="black"/>
<path d="M28.4955 0.305176C27.886 0.305176 27.4289 0.35597 27.1749 0.965494L22.7559 9.44803H25.4987L26.0067 7.92422H29.2574L29.5622 9.44803H32.0003L29.867 0.305176H28.4955ZM26.7178 6.40041C26.9209 5.89248 27.7336 3.70835 27.7336 3.70835C27.7336 3.70835 27.9368 3.14962 28.0892 2.79407L28.2416 3.65756C28.2416 3.65756 28.7495 5.94327 28.8511 6.45121H26.7178V6.40041Z" fill="black"/>
<path d="M7.06001 6.70467L6.80604 5.38403C6.3489 3.86023 4.87589 2.18404 3.25049 1.37134L5.5362 9.49832H8.27906L12.3933 0.355469H9.65049L7.06001 6.70467Z" fill="black"/>
<path d="M7.06001 6.70467L6.80604 5.38403C6.3489 3.86023 4.87589 2.18404 3.25049 1.37134L5.5362 9.49832H8.27906L12.3933 0.355469H10.1584L7.06001 6.70467Z" fill="black"/>
<path d="M0 0.305176L0.457143 0.406763C3.70794 1.16867 5.94286 3.09883 6.80635 5.38454L5.89206 1.06708C5.73968 0.457557 5.28254 0.305176 4.72381 0.305176H0Z" fill="#5F5F5F"/>
<path d="M0 0.305176C3.25079 1.06708 5.94286 3.04803 6.80635 5.33375L5.94286 1.7274C5.79048 1.11787 5.28254 0.762319 4.72381 0.762319L0 0.305176Z" fill="#5F5F5F"/>
<path d="M0 0.305176C3.25079 1.06708 5.94286 3.04803 6.80635 5.33375L6.19683 3.35279C6.04444 2.74327 5.84127 2.13375 5.13016 1.87978L0 0.305176Z" fill="#5F5F5F"/>
<path d="M9.60017 6.40017L7.87319 4.67318L7.06049 6.60334L6.85731 5.3335C6.40017 3.80969 4.92715 2.1335 3.30176 1.3208L5.58747 9.44778H8.33033L9.60017 6.40017Z" fill="black"/>
<path d="M14.3239 9.44781L12.1397 7.21289L11.7334 9.44781H14.3239Z" fill="black"/>
<path d="M20.1651 6.29834C20.3683 6.50151 20.4699 6.6539 20.4191 6.85707C20.4191 7.46659 19.6064 7.77136 18.8953 7.77136C17.8794 7.77136 17.3207 7.61898 16.4572 7.26342L16.1016 7.11104L15.7461 9.19358C16.3556 9.44755 17.4731 9.70151 18.6413 9.70151C20.2667 9.70151 21.5874 9.24437 22.3493 8.43167L20.1651 6.29834Z" fill="black"/>
<path d="M23.1108 9.44742H25.4981L26.0061 7.92362H29.2569L29.5616 9.44742H31.9997L31.1362 5.73949L28.0886 2.79346L28.241 3.60615C28.241 3.60615 28.7489 5.89187 28.8505 6.39981H26.7172C26.9204 5.89187 27.7331 3.70774 27.7331 3.70774C27.7331 3.70774 27.9362 3.14901 28.0886 2.79346" fill="black"/>
</g>
<defs>
<clipPath id="clip0">
<rect width="32" height="9.6" fill="white"/>
</clipPath>
</defs>
</svg>
