<svg width="270" height="380" viewBox="0 0 270 380" fill="none" xmlns="http://www.w3.org/2000/svg">
<g clip-path="url(#clip0_291_42)">
<rect width="270" height="380" rx="10" fill="white"/>
<rect width="270" height="380" rx="10" fill="url(#paint0_linear_291_42)"/>
<rect width="270" height="380" rx="10" fill="url(#paint1_radial_291_42)" fill-opacity="0.7"/>
<rect x="-462.787" y="941.186" width="1954.41" height="220" transform="rotate(-45 -462.787 941.186)" fill="white" fill-opacity="0.1"/>
<rect x="-616.884" y="983.282" width="2127.21" height="220" transform="rotate(-45 -616.884 983.282)" fill="white" fill-opacity="0.1"/>
<rect x="-670.465" y="926.864" width="2139.24" height="386.118" transform="rotate(-45 -670.465 926.864)" fill="white" fill-opacity="0.1"/>
<rect x="-650.444" y="796.503" width="1948.71" height="386.118" transform="rotate(-45 -650.444 796.503)" fill="white" fill-opacity="0.1"/>
<path d="M92.0438 309.85H85.3478L83.9618 313H82.1078L87.8138 300.4H89.5958L95.3198 313H93.4298L92.0438 309.85ZM91.4138 308.41L88.6958 302.236L85.9778 308.41H91.4138ZM100.799 300.4H106.109C107.441 300.4 108.623 300.664 109.655 301.192C110.687 301.72 111.485 302.464 112.049 303.424C112.625 304.372 112.913 305.464 112.913 306.7C112.913 307.936 112.625 309.034 112.049 309.994C111.485 310.942 110.687 311.68 109.655 312.208C108.623 312.736 107.441 313 106.109 313H100.799V300.4ZM106.001 311.434C107.021 311.434 107.915 311.236 108.683 310.84C109.463 310.444 110.063 309.892 110.483 309.184C110.903 308.464 111.113 307.636 111.113 306.7C111.113 305.764 110.903 304.942 110.483 304.234C110.063 303.514 109.463 302.956 108.683 302.56C107.915 302.164 107.021 301.966 106.001 301.966H102.599V311.434H106.001ZM129.81 300.4L124.284 313H122.502L116.958 300.4H118.902L123.438 310.75L128.01 300.4H129.81ZM135.017 300.4H136.817V313H135.017V300.4ZM147.861 313.144C146.913 313.144 145.995 313 145.107 312.712C144.231 312.412 143.541 312.028 143.037 311.56L143.703 310.156C144.183 310.588 144.795 310.942 145.539 311.218C146.295 311.482 147.069 311.614 147.861 311.614C148.905 311.614 149.685 311.44 150.201 311.092C150.717 310.732 150.975 310.258 150.975 309.67C150.975 309.238 150.831 308.89 150.543 308.626C150.267 308.35 149.919 308.14 149.499 307.996C149.091 307.852 148.509 307.69 147.753 307.51C146.805 307.282 146.037 307.054 145.449 306.826C144.873 306.598 144.375 306.25 143.955 305.782C143.547 305.302 143.343 304.66 143.343 303.856C143.343 303.184 143.517 302.578 143.865 302.038C144.225 301.498 144.765 301.066 145.485 300.742C146.205 300.418 147.099 300.256 148.167 300.256C148.911 300.256 149.643 300.352 150.363 300.544C151.083 300.736 151.701 301.012 152.217 301.372L151.623 302.812C151.095 302.476 150.531 302.224 149.931 302.056C149.331 301.876 148.743 301.786 148.167 301.786C147.147 301.786 146.379 301.972 145.863 302.344C145.359 302.716 145.107 303.196 145.107 303.784C145.107 304.216 145.251 304.57 145.539 304.846C145.827 305.11 146.181 305.32 146.601 305.476C147.033 305.62 147.615 305.776 148.347 305.944C149.295 306.172 150.057 306.4 150.633 306.628C151.209 306.856 151.701 307.204 152.109 307.672C152.529 308.14 152.739 308.77 152.739 309.562C152.739 310.222 152.559 310.828 152.199 311.38C151.839 311.92 151.293 312.352 150.561 312.676C149.829 312.988 148.929 313.144 147.861 313.144ZM164.657 313.144C163.385 313.144 162.239 312.868 161.219 312.316C160.199 311.752 159.395 310.978 158.807 309.994C158.231 309.01 157.943 307.912 157.943 306.7C157.943 305.488 158.231 304.39 158.807 303.406C159.395 302.422 160.199 301.654 161.219 301.102C162.239 300.538 163.385 300.256 164.657 300.256C165.917 300.256 167.057 300.538 168.077 301.102C169.097 301.654 169.895 302.422 170.471 303.406C171.047 304.378 171.335 305.476 171.335 306.7C171.335 307.924 171.047 309.028 170.471 310.012C169.895 310.984 169.097 311.752 168.077 312.316C167.057 312.868 165.917 313.144 164.657 313.144ZM164.657 311.542C165.581 311.542 166.409 311.332 167.141 310.912C167.885 310.492 168.467 309.916 168.887 309.184C169.319 308.44 169.535 307.612 169.535 306.7C169.535 305.788 169.319 304.966 168.887 304.234C168.467 303.49 167.885 302.908 167.141 302.488C166.409 302.068 165.581 301.858 164.657 301.858C163.733 301.858 162.893 302.068 162.137 302.488C161.393 302.908 160.805 303.49 160.373 304.234C159.953 304.966 159.743 305.788 159.743 306.7C159.743 307.612 159.953 308.44 160.373 309.184C160.805 309.916 161.393 310.492 162.137 310.912C162.893 311.332 163.733 311.542 164.657 311.542ZM186.11 313L183.392 309.13C183.056 309.154 182.792 309.166 182.6 309.166H179.486V313H177.686V300.4H182.6C184.232 300.4 185.516 300.79 186.452 301.57C187.388 302.35 187.856 303.424 187.856 304.792C187.856 305.764 187.616 306.592 187.136 307.276C186.656 307.96 185.972 308.458 185.084 308.77L188.072 313H186.11ZM182.546 307.636C183.686 307.636 184.556 307.39 185.156 306.898C185.756 306.406 186.056 305.704 186.056 304.792C186.056 303.88 185.756 303.184 185.156 302.704C184.556 302.212 183.686 301.966 182.546 301.966H179.486V307.636H182.546Z" fill="white"/>
<g filter="url(#filter0_dd_291_42)">
<path d="M112.151 188.507L102.974 212H74.8923L127.752 83.5214H142.619L194.744 212H166.663L157.486 188.507H112.151ZM134.91 129.407L120.961 164.463H148.676L134.91 129.407Z" fill="#D7FDFB"/>
</g>
<g filter="url(#filter1_dd_291_42)">
<path d="M193.22 96.588H206.485V102.978H193.22V116.485H186.264V102.978H173V96.588H186.264V83H193.22V96.588Z" fill="#D7FDFB"/>
</g>
</g>
<rect x="3" y="3" width="264" height="374" rx="7" stroke="url(#paint2_linear_291_42)" stroke-width="6"/>
<defs>
<filter id="filter0_dd_291_42" x="53.1597" y="61.7888" width="163.505" height="172.131" filterUnits="userSpaceOnUse" color-interpolation-filters="sRGB">
<feFlood flood-opacity="0" result="BackgroundImageFix"/>
<feColorMatrix in="SourceAlpha" type="matrix" values="0 0 0 0 0 0 0 0 0 0 0 0 0 0 0 0 0 0 127 0" result="hardAlpha"/>
<feOffset dx="7.30667" dy="7.30667"/>
<feGaussianBlur stdDeviation="7.30667"/>
<feComposite in2="hardAlpha" operator="out"/>
<feColorMatrix type="matrix" values="0 0 0 0 0.13941 0 0 0 0 0.458333 0 0 0 0 0.439198 0 0 0 1 0"/>
<feBlend mode="normal" in2="BackgroundImageFix" result="effect1_dropShadow_291_42"/>
<feColorMatrix in="SourceAlpha" type="matrix" values="0 0 0 0 0 0 0 0 0 0 0 0 0 0 0 0 0 0 127 0" result="hardAlpha"/>
<feOffset dx="-4.32632" dy="-4.32632"/>
<feGaussianBlur stdDeviation="8.7031"/>
<feComposite in2="hardAlpha" operator="out"/>
<feColorMatrix type="matrix" values="0 0 0 0 1 0 0 0 0 1 0 0 0 0 1 0 0 0 0.5 0"/>
<feBlend mode="normal" in2="effect1_dropShadow_291_42" result="effect2_dropShadow_291_42"/>
<feBlend mode="normal" in="SourceGraphic" in2="effect2_dropShadow_291_42" result="shape"/>
</filter>
<filter id="filter1_dd_291_42" x="163.423" y="73.4232" width="52.7209" height="52.7209" filterUnits="userSpaceOnUse" color-interpolation-filters="sRGB">
<feFlood flood-opacity="0" result="BackgroundImageFix"/>
<feColorMatrix in="SourceAlpha" type="matrix" values="0 0 0 0 0 0 0 0 0 0 0 0 0 0 0 0 0 0 127 0" result="hardAlpha"/>
<feOffset dx="3.21982" dy="3.21982"/>
<feGaussianBlur stdDeviation="3.21982"/>
<feComposite in2="hardAlpha" operator="out"/>
<feColorMatrix type="matrix" values="0 0 0 0 0.13941 0 0 0 0 0.458333 0 0 0 0 0.439198 0 0 0 1 0"/>
<feBlend mode="normal" in2="BackgroundImageFix" result="effect1_dropShadow_291_42"/>
<feColorMatrix in="SourceAlpha" type="matrix" values="0 0 0 0 0 0 0 0 0 0 0 0 0 0 0 0 0 0 127 0" result="hardAlpha"/>
<feOffset dx="-1.90647" dy="-1.90647"/>
<feGaussianBlur stdDeviation="3.83518"/>
<feComposite in2="hardAlpha" operator="out"/>
<feColorMatrix type="matrix" values="0 0 0 0 1 0 0 0 0 1 0 0 0 0 1 0 0 0 0.5 0"/>
<feBlend mode="normal" in2="effect1_dropShadow_291_42" result="effect2_dropShadow_291_42"/>
<feBlend mode="normal" in="SourceGraphic" in2="effect2_dropShadow_291_42" result="shape"/>
</filter>
<linearGradient id="paint0_linear_291_42" x1="-18.7283" y1="-84.5665" x2="387.39" y2="322.225" gradientUnits="userSpaceOnUse">
<stop stop-color="#3FD3B9"/>
<stop offset="1" stop-color="#308FA4"/>
</linearGradient>
<radialGradient id="paint1_radial_291_42" cx="0" cy="0" r="1" gradientUnits="userSpaceOnUse" gradientTransform="translate(-79 -27.5) rotate(41.9724) scale(287.841 204.518)">
<stop stop-color="white"/>
<stop offset="1" stop-color="white" stop-opacity="0"/>
</radialGradient>
<linearGradient id="paint2_linear_291_42" x1="-26.5318" y1="-37.341" x2="387.396" y2="303.203" gradientUnits="userSpaceOnUse">
<stop stop-color="#8ACCF1"/>
<stop offset="1" stop-color="#44A3A3"/>
</linearGradient>
<clipPath id="clip0_291_42">
<rect width="270" height="380" rx="10" fill="white"/>
</clipPath>
</defs>
</svg>
