<svg width="270" height="380" viewBox="0 0 270 380" fill="none" xmlns="http://www.w3.org/2000/svg">
<g clip-path="url(#clip0_301_76)">
<rect width="270" height="380" rx="10" fill="white"/>
<rect width="270" height="380" rx="10" fill="url(#paint0_linear_301_76)"/>
<rect width="270" height="380" rx="10" fill="url(#paint1_radial_301_76)" fill-opacity="0.7"/>
<rect x="-462.787" y="941.186" width="1954.41" height="220" transform="rotate(-45 -462.787 941.186)" fill="white" fill-opacity="0.1"/>
<rect x="-616.883" y="983.282" width="2127.21" height="220" transform="rotate(-45 -616.883 983.282)" fill="white" fill-opacity="0.1"/>
<rect x="-670.465" y="926.864" width="2139.24" height="386.118" transform="rotate(-45 -670.465 926.864)" fill="white" fill-opacity="0.1"/>
<rect x="-650.444" y="796.503" width="1948.71" height="386.118" transform="rotate(-45 -650.444 796.503)" fill="white" fill-opacity="0.1"/>
<path d="M75.8007 299.4H81.1107C82.4427 299.4 83.6247 299.664 84.6567 300.192C85.6887 300.72 86.4867 301.464 87.0507 302.424C87.6267 303.372 87.9147 304.464 87.9147 305.7C87.9147 306.936 87.6267 308.034 87.0507 308.994C86.4867 309.942 85.6887 310.68 84.6567 311.208C83.6247 311.736 82.4427 312 81.1107 312H75.8007V299.4ZM81.0027 310.434C82.0227 310.434 82.9167 310.236 83.6847 309.84C84.4647 309.444 85.0647 308.892 85.4847 308.184C85.9047 307.464 86.1147 306.636 86.1147 305.7C86.1147 304.764 85.9047 303.942 85.4847 303.234C85.0647 302.514 84.4647 301.956 83.6847 301.56C82.9167 301.164 82.0227 300.966 81.0027 300.966H77.6007V310.434H81.0027ZM94.2718 299.4H96.0718V312H94.2718V299.4ZM111.868 312L109.15 308.13C108.814 308.154 108.55 308.166 108.358 308.166H105.244V312H103.444V299.4H108.358C109.99 299.4 111.274 299.79 112.21 300.57C113.146 301.35 113.614 302.424 113.614 303.792C113.614 304.764 113.374 305.592 112.894 306.276C112.414 306.96 111.73 307.458 110.842 307.77L113.83 312H111.868ZM108.304 306.636C109.444 306.636 110.314 306.39 110.914 305.898C111.514 305.406 111.814 304.704 111.814 303.792C111.814 302.88 111.514 302.184 110.914 301.704C110.314 301.212 109.444 300.966 108.304 300.966H105.244V306.636H108.304ZM129.266 310.434V312H120.122V299.4H129.014V300.966H121.922V304.836H128.24V306.366H121.922V310.434H129.266ZM141.362 312.144C140.102 312.144 138.962 311.868 137.942 311.316C136.934 310.752 136.142 309.984 135.566 309.012C134.99 308.028 134.702 306.924 134.702 305.7C134.702 304.476 134.99 303.378 135.566 302.406C136.142 301.422 136.94 300.654 137.96 300.102C138.98 299.538 140.12 299.256 141.38 299.256C142.364 299.256 143.264 299.424 144.08 299.76C144.896 300.084 145.592 300.57 146.168 301.218L144.998 302.352C144.05 301.356 142.868 300.858 141.452 300.858C140.516 300.858 139.67 301.068 138.914 301.488C138.158 301.908 137.564 302.49 137.132 303.234C136.712 303.966 136.502 304.788 136.502 305.7C136.502 306.612 136.712 307.44 137.132 308.184C137.564 308.916 138.158 309.492 138.914 309.912C139.67 310.332 140.516 310.542 141.452 310.542C142.856 310.542 144.038 310.038 144.998 309.03L146.168 310.164C145.592 310.812 144.89 311.304 144.062 311.64C143.246 311.976 142.346 312.144 141.362 312.144ZM154.697 300.966H150.377V299.4H160.799V300.966H156.479V312H154.697V300.966ZM171.872 312.144C170.6 312.144 169.454 311.868 168.434 311.316C167.414 310.752 166.61 309.978 166.022 308.994C165.446 308.01 165.158 306.912 165.158 305.7C165.158 304.488 165.446 303.39 166.022 302.406C166.61 301.422 167.414 300.654 168.434 300.102C169.454 299.538 170.6 299.256 171.872 299.256C173.132 299.256 174.272 299.538 175.292 300.102C176.312 300.654 177.11 301.422 177.686 302.406C178.262 303.378 178.55 304.476 178.55 305.7C178.55 306.924 178.262 308.028 177.686 309.012C177.11 309.984 176.312 310.752 175.292 311.316C174.272 311.868 173.132 312.144 171.872 312.144ZM171.872 310.542C172.796 310.542 173.624 310.332 174.356 309.912C175.1 309.492 175.682 308.916 176.102 308.184C176.534 307.44 176.75 306.612 176.75 305.7C176.75 304.788 176.534 303.966 176.102 303.234C175.682 302.49 175.1 301.908 174.356 301.488C173.624 301.068 172.796 300.858 171.872 300.858C170.948 300.858 170.108 301.068 169.352 301.488C168.608 301.908 168.02 302.49 167.588 303.234C167.168 303.966 166.958 304.788 166.958 305.7C166.958 306.612 167.168 307.44 167.588 308.184C168.02 308.916 168.608 309.492 169.352 309.912C170.108 310.332 170.948 310.542 171.872 310.542ZM193.325 312L190.607 308.13C190.271 308.154 190.007 308.166 189.815 308.166H186.701V312H184.901V299.4H189.815C191.447 299.4 192.731 299.79 193.667 300.57C194.603 301.35 195.071 302.424 195.071 303.792C195.071 304.764 194.831 305.592 194.351 306.276C193.871 306.96 193.187 307.458 192.299 307.77L195.287 312H193.325ZM189.761 306.636C190.901 306.636 191.771 306.39 192.371 305.898C192.971 305.406 193.271 304.704 193.271 303.792C193.271 302.88 192.971 302.184 192.371 301.704C191.771 301.212 190.901 300.966 189.761 300.966H186.701V306.636H189.761Z" fill="white"/>
<g filter="url(#filter0_dd_301_76)">
<path d="M87.2637 84.6177H135.748C146.681 84.6177 155.016 85.4542 160.752 87.1271C168.459 89.3975 175.061 93.4303 180.558 99.2257C186.054 105.021 190.237 112.131 193.104 120.555C195.972 128.92 197.406 139.256 197.406 151.564C197.406 162.378 196.062 171.698 193.373 179.525C190.087 189.084 185.397 196.821 179.303 202.736C174.702 207.217 168.489 210.712 160.662 213.222C154.807 215.074 146.98 216 137.182 216H87.2637V84.6177ZM113.791 106.843V193.864H133.597C141.006 193.864 146.353 193.446 149.639 192.609C153.941 191.534 157.496 189.712 160.304 187.143C163.171 184.573 165.502 180.361 167.294 174.506C169.086 168.591 169.983 160.555 169.983 150.398C169.983 140.242 169.086 132.445 167.294 127.008C165.502 121.571 162.992 117.329 159.766 114.282C156.54 111.235 152.447 109.173 147.488 108.098C143.784 107.262 136.525 106.843 125.71 106.843H113.791Z" fill="#FDD7D7"/>
</g>
</g>
<rect x="3" y="3" width="264" height="374" rx="7" stroke="url(#paint2_linear_301_76)" stroke-width="6"/>
<defs>
<filter id="filter0_dd_301_76" x="66.2637" y="63.6178" width="152.442" height="173.682" filterUnits="userSpaceOnUse" color-interpolation-filters="sRGB">
<feFlood flood-opacity="0" result="BackgroundImageFix"/>
<feColorMatrix in="SourceAlpha" type="matrix" values="0 0 0 0 0 0 0 0 0 0 0 0 0 0 0 0 0 0 127 0" result="hardAlpha"/>
<feOffset dx="7.3" dy="7.3"/>
<feGaussianBlur stdDeviation="7"/>
<feComposite in2="hardAlpha" operator="out"/>
<feColorMatrix type="matrix" values="0 0 0 0 0.458824 0 0 0 0 0.141176 0 0 0 0 0.141176 0 0 0 0.7 0"/>
<feBlend mode="normal" in2="BackgroundImageFix" result="effect1_dropShadow_301_76"/>
<feColorMatrix in="SourceAlpha" type="matrix" values="0 0 0 0 0 0 0 0 0 0 0 0 0 0 0 0 0 0 127 0" result="hardAlpha"/>
<feOffset dx="-4" dy="-4"/>
<feGaussianBlur stdDeviation="8.5"/>
<feComposite in2="hardAlpha" operator="out"/>
<feColorMatrix type="matrix" values="0 0 0 0 1 0 0 0 0 1 0 0 0 0 1 0 0 0 0.5 0"/>
<feBlend mode="normal" in2="effect1_dropShadow_301_76" result="effect2_dropShadow_301_76"/>
<feBlend mode="normal" in="SourceGraphic" in2="effect2_dropShadow_301_76" result="shape"/>
</filter>
<linearGradient id="paint0_linear_301_76" x1="-18.7283" y1="-84.5665" x2="387.39" y2="322.225" gradientUnits="userSpaceOnUse">
<stop stop-color="#D33F3F"/>
<stop offset="1" stop-color="#A43030"/>
</linearGradient>
<radialGradient id="paint1_radial_301_76" cx="0" cy="0" r="1" gradientUnits="userSpaceOnUse" gradientTransform="translate(-79 -27.5) rotate(41.9724) scale(287.841 204.518)">
<stop stop-color="white"/>
<stop offset="1" stop-color="white" stop-opacity="0"/>
</radialGradient>
<linearGradient id="paint2_linear_301_76" x1="-26.5318" y1="-37.341" x2="387.396" y2="303.203" gradientUnits="userSpaceOnUse">
<stop stop-color="#F18A8A"/>
<stop offset="1" stop-color="#A34444"/>
</linearGradient>
<clipPath id="clip0_301_76">
<rect width="270" height="380" rx="10" fill="white"/>
</clipPath>
</defs>
</svg>
