<svg width="200" height="60" fill="none" xmlns="http://www.w3.org/2000/svg" viewBox="0 0 200 60"><path fill-rule="evenodd" clip-rule="evenodd" d="M129.741 26.061l-6.821.947v-5.866h-8.186v-5.067h23.329v5.067h-8.322v4.92zm18.418-2.554l-6.822.946v-8.378h6.822v7.432zm25.029-3.47l-7.977 1.105h.001-13.37v-5.067h21.694v3.467l-.348.494zM4.658 43.407h-.02V16.075h6.822v26.39l-6.802.943zm11.304-1.567V16.075h6.821l9.686 16.933V16.075h6.822v22.53l-8.766 1.216-7.742-13.346v14.42l-6.821.946zm32.717-4.538l-7.205-21.228h7.367l5.593 19.867 5.594-19.867h7.503l-6.732 19.548-12.12 1.68zM200 30.447V28.96v1.485zm-6.29-13.256l-14.699 2.039a10.839 10.839 0 012.299-1.827c1.88-1.112 4.016-1.669 6.408-1.669 2.223 0 4.22.486 5.992 1.457zm-85.577 11.868l-11.108 1.54c-.024-.01-.047-.022-.07-.033-3.62-1.738-5.43-4.125-5.43-7.163 0-1.512.447-2.844 1.343-3.994.908-1.162 2.187-2.062 3.837-2.7 1.65-.65 3.504-.975 5.563-.975 2.008 0 3.805.35 5.391 1.05 1.599.7 2.84 1.7 3.722 3 .883 1.288 1.324 2.763 1.324 4.425h-6.715c0-1.112-.352-1.975-1.055-2.587-.691-.613-1.631-.919-2.82-.919-1.202 0-2.155.263-2.859.788-.69.512-1.036 1.168-1.036 1.968 0 .7.384 1.338 1.151 1.913.768.562 2.117 1.15 4.048 1.762 1.909.593 3.48 1.235 4.714 1.925zm-38.556 5.347l6.685-.927v-1.67h10.641v-5.066h-10.64v-5.6h12.55v-5.067H69.577v18.33z" fill="#5CE02E"/><path fill-rule="evenodd" clip-rule="evenodd" d="M104.915 36.654c.704.537 1.055 1.287 1.055 2.25 0 .85-.326 1.512-.978 1.987-.64.463-1.516.694-2.628.694-1.74 0-3-.344-3.78-1.031-.767-.7-1.151-1.782-1.151-3.244H90.68c0 1.8.46 3.394 1.381 4.781.934 1.375 2.315 2.463 4.144 3.263 1.842.787 3.895 1.18 6.159 1.18 3.21 0 5.736-.68 7.578-2.043 1.841-1.362 2.762-3.237 2.762-5.625 0-2.987-1.509-5.331-4.527-7.031l-.045-.025-11.108 1.54c1.103.527 2.512 1.072 4.227 1.635 1.752.575 2.973 1.131 3.664 1.669zm-28.654-.424v4.863H88.82v5.067H69.577v-9.003l6.684-.927zm46.658-6.471v16.4h6.821V28.814l-6.821.946zm18.417-2.554V46.16h6.822V26.259l-6.822.946zm23.874-3.311l-13.369 18.8v3.466h21.828v-5.067H160.3l12.887-18.305-7.977 1.106zm13.8-1.914a11.626 11.626 0 00-2.017 2.917c-.998 2.038-1.55 4.188-1.55 6.863v1.333c.051 2.575.642 5.267 1.665 7.254 1.036 1.988 2.475 3.52 4.316 4.594 1.842 1.063 3.952 1.594 6.331 1.594 2.379 0 4.496-.55 6.351-1.65 1.867-1.113 3.306-2.694 4.316-4.744 1.011-2.05 1.578-4.385 1.578-7.048V31.76c-.013-2.625-.599-4.894-1.635-6.919-1.024-2.037-2.462-3.606-4.317-4.706a10.94 10.94 0 00-.339-.193L179.01 21.98zM11.46 45.217l-6.803.943h6.802v-.943zm27.83.943h-6.685l-2.08-3.587 8.765-1.216v4.803zm21.508-7.786l-12.12 1.681 2.072 6.105h7.367l2.681-7.786zm-38.015 5.272l-6.822.946v1.568h6.822v-2.514zM191.688 25.76c.934 1.4 1.49 2.62 1.49 5.333v2c-.013 2.65-.569 4.773-1.49 6.186-.921 1.412-2.232 2.118-3.933 2.118-1.79 0-3.14-.718-4.048-2.156-.908-1.437-1.443-3.473-1.443-6.148v-2c.192-4.95 2.076-7.452 5.453-7.452 1.727 0 3.05.706 3.971 2.119z" fill="#fff"/><path d="M11.46 32.533l-6.821.944V10.8h6.821v21.733z" fill="#5CE02E"/><path d="M8.05 0l6.97 11.6H1.078L8.05 0z" fill="#5CE02E"/><path d="M141.337 27.2l6.821-.944v22.677h-6.821V27.2z" fill="#DC2958"/><path d="M144.747 60l6.971-11.6h-13.941l6.97 11.6z" fill="#DC2958"/></svg>