<svg width="20" height="20" viewBox="0 0 20 20" fill="none" xmlns="http://www.w3.org/2000/svg"><path d="M3.33398 18.3333C3.33398 16.5652 4.03636 14.8695 5.28661 13.6193C6.53685 12.369 8.23254 11.6666 10.0007 11.6666C11.7688 11.6666 13.4645 12.369 14.7147 13.6193C15.9649 14.8695 16.6673 16.5652 16.6673 18.3333H15.0007C15.0007 17.0072 14.4739 15.7355 13.5362 14.7978C12.5985 13.8601 11.3267 13.3333 10.0007 13.3333C8.67457 13.3333 7.4028 13.8601 6.46512 14.7978C5.52744 15.7355 5.00065 17.0072 5.00065 18.3333H3.33398ZM10.0007 10.8333C7.23815 10.8333 5.00065 8.59581 5.00065 5.83331C5.00065 3.07081 7.23815 0.833313 10.0007 0.833313C12.7632 0.833313 15.0007 3.07081 15.0007 5.83331C15.0007 8.59581 12.7632 10.8333 10.0007 10.8333ZM10.0007 9.16665C11.8423 9.16665 13.334 7.67498 13.334 5.83331C13.334 3.99165 11.8423 2.49998 10.0007 2.49998C8.15898 2.49998 6.66732 3.99165 6.66732 5.83331C6.66732 7.67498 8.15898 9.16665 10.0007 9.16665Z" fill="currentColor"></path></svg>